<?xml version="1.0" encoding="UTF-8" standalone="no"?>
<!-- Created with Inkscape (http://www.inkscape.org/) -->

<svg
   width="12.646014mm"
   height="12.646022mm"
   viewBox="0 0 12.646014 12.646022"
   version="1.1"
   id="svg1"
   xml:space="preserve"
   xmlns="http://www.w3.org/2000/svg"
   xmlns:svg="http://www.w3.org/2000/svg"><defs
     id="defs1"><filter
       style="color-interpolation-filters:sRGB"
       id="filter103"
       x="-0.051486491"
       y="-0.053497679"
       width="1.102973"
       height="1.1069954"><feGaussianBlur
         stdDeviation="0.18153455"
         id="feGaussianBlur103" /></filter><filter
       style="color-interpolation-filters:sRGB"
       id="filter98-7"
       x="-0.030725458"
       y="-0.033769082"
       width="1.0716201"
       height="1.0898911"><feFlood
         result="flood"
         in="SourceGraphic"
         flood-opacity="0.498039"
         flood-color="rgb(0,0,0)"
         id="feFlood97-9" /><feGaussianBlur
         result="blur"
         in="SourceGraphic"
         stdDeviation="0.12589327"
         id="feGaussianBlur97-5" /><feOffset
         result="offset"
         in="blur"
         dx="0.100000"
         dy="0.200000"
         id="feOffset97-4" /><feComposite
         result="comp1"
         operator="in"
         in="flood"
         in2="offset"
         id="feComposite97-3" /><feComposite
         result="comp2"
         operator="over"
         in="SourceGraphic"
         in2="comp1"
         id="feComposite98-1" /></filter><clipPath
       clipPathUnits="userSpaceOnUse"
       id="clipPath12"><rect
         style="opacity:1;fill:#eeeeec;fill-opacity:0.448105;fill-rule:nonzero;stroke:none;stroke-width:1.00386;stroke-linecap:round;stroke-linejoin:round;stroke-dasharray:none"
         id="rect12"
         width="12.646017"
         height="12.646017"
         x="132.57214"
         y="118.20591" /></clipPath></defs><g
     id="layer1"
     transform="translate(-132.57215,-118.20591)"><g
       id="g4"
       clip-path="url(#clipPath12)"><ellipse
         style="fill:#f288eb;fill-opacity:1;fill-rule:nonzero;stroke:none;stroke-width:0.899999;stroke-linecap:round;stroke-linejoin:round;stroke-dasharray:none;filter:url(#filter103)"
         id="ellipse2"
         cx="139.539"
         cy="124.29485"
         rx="4.231041"
         ry="4.0719795" /><circle
         style="fill:#7fffd4;fill-opacity:1;fill-rule:nonzero;stroke:none;stroke-width:1.28903;stroke-linecap:round;stroke-linejoin:round;stroke-dasharray:none"
         id="circle2"
         cx="138.96428"
         cy="124.45578"
         r="10.97319" /><path
         d="m 143.48902,124.39687 c -0.0946,0.21933 -0.39978,0.33539 -0.83033,0.31588 -0.40129,-0.0183 -0.51494,-0.13701 -0.37905,-0.39644 0.11914,-0.22734 0.67587,-0.32638 1.05836,-0.18825 0.19787,0.0714 0.21955,0.11008 0.15102,0.26881 z m -0.68733,-3.07531 c -0.5983,0.64508 -0.79218,0.79799 -0.9998,0.78857 -0.26432,-0.0126 -0.43305,-0.21948 -0.29617,-0.36421 0.054,-0.0571 0.21761,-0.25531 0.36357,-0.4405 0.30298,-0.38434 0.98842,-0.82869 1.16162,-0.75305 0.20376,0.089 0.11008,0.40341 -0.22922,0.76919 z m -0.43236,6.51073 c -0.21065,0.25321 -0.44131,0.14616 -0.96236,-0.44666 -0.27647,-0.31453 -0.51002,-0.59742 -0.51899,-0.62864 -0.008,-0.0313 0.06,-0.14719 0.15331,-0.25773 l 0.16962,-0.20097 0.2682,0.16538 c 0.24238,0.14944 0.94241,0.96518 0.98855,1.15195 0.01,0.0417 -0.0339,0.13923 -0.0984,0.21667 z m -1.57029,-3.12575 c -0.1417,0.48122 -0.25708,0.68043 -0.62995,1.08768 -0.25107,0.2742 -0.56005,0.65824 -0.68662,0.85337 -0.12653,0.19515 -0.24653,0.35407 -0.26655,0.35317 -0.242,-0.0112 -0.72015,-0.43018 -1.46479,-1.28425 -0.91148,-1.04542 -0.98427,-1.1604 -1.06094,-1.67566 -0.0234,-0.15754 -0.0568,-0.38097 -0.0742,-0.49652 -0.042,-0.27987 0.33295,-0.60616 0.90281,-0.78564 0.54334,-0.17114 0.79652,-0.10994 1.09683,0.26506 0.27601,0.34465 0.43831,0.33999 0.8982,-0.0258 0.15564,-0.12375 0.38639,-0.24287 0.51278,-0.26459 0.1264,-0.0218 0.28006,-0.0527 0.34148,-0.0689 0.13617,-0.0358 0.43127,0.13086 0.56119,0.317 0.13617,0.195 0.0725,1.03609 -0.1303,1.72509 z m -1.27733,3.95778 c -0.1038,0.42429 -0.1586,0.51319 -0.31205,0.50622 -0.1652,-0.008 -0.25489,-0.23413 -0.34152,-0.86293 -0.0684,-0.49644 -0.0604,-0.56121 0.0882,-0.71971 0.22744,-0.24249 0.52841,-0.21303 0.61847,0.0605 0.0826,0.25053 0.0685,0.51908 -0.053,1.0159 z m -0.0413,-7.29224 c -0.19281,0.23219 -0.54285,0.0353 -0.52779,-0.29698 0.006,-0.13268 -0.007,-0.35897 -0.0292,-0.50282 -0.034,-0.22251 -0.01,-0.27111 0.16084,-0.32569 0.12292,-0.0393 0.27218,-0.0276 0.38445,0.0297 0.15593,0.0798 0.18025,0.15763 0.16168,0.51769 -0.0126,0.23757 -0.0781,0.49158 -0.15001,0.57808 z m -2.79229,5.52459 c -0.14227,0.19435 -0.41132,0.48902 -0.59791,0.65483 -0.2749,0.24424 -0.35603,0.27932 -0.42749,0.18478 -0.11272,-0.14912 0.27934,-1.30125 0.44038,-1.29395 0.059,0.003 0.13142,-0.0504 0.16091,-0.11789 0.078,-0.17858 0.51285,-0.1363 0.60621,0.0589 0.0597,0.12501 0.0199,0.23736 -0.1821,0.5134 z m -0.22631,-5.11491 c -0.21405,0.16185 -0.63872,-0.0202 -1.1621,-0.4982 -0.46559,-0.42523 -0.70967,-0.79797 -0.44758,-0.68353 0.0678,0.0296 0.11593,-0.004 0.11956,-0.0843 0.008,-0.18243 0.40346,-0.15717 0.67214,0.043 0.493,0.36718 0.95682,0.84597 0.95069,0.98134 -0.004,0.0805 -0.0635,0.18927 -0.13268,0.24171 z m -1.35048,2.55804 c -0.62238,0.19031 -1.03091,0.19369 -1.23761,0.01 l -0.18308,-0.16252 0.2117,-0.20126 c 0.16882,-0.1605 0.32402,-0.20693 0.76619,-0.22924 0.65982,-0.0333 0.8229,0.023 0.81122,0.28037 -0.007,0.15109 -0.0859,0.21606 -0.36842,0.30242 z"
         style="fill:#000000;fill-opacity:1;fill-rule:nonzero;stroke:none;stroke-width:0.196957;stroke-dasharray:none;filter:url(#filter98-7)"
         id="path4" /></g></g></svg>
