<?xml version="1.0" encoding="UTF-8" standalone="no"?>
<!-- Created with Inkscape (http://www.inkscape.org/) -->

<svg
   width="210mm"
   height="297mm"
   viewBox="0 0 210 297"
   version="1.1"
   id="svg1"
   xml:space="preserve"
   inkscape:version="1.4.3 (0d15f75, 2025-12-25)"
   sodipodi:docname="IconsLogos.svg"
   inkscape:export-filename="simplefeed\public\IconsLogos.svg"
   inkscape:export-xdpi="104.41514"
   inkscape:export-ydpi="104.41514"
   xmlns:inkscape="http://www.inkscape.org/namespaces/inkscape"
   xmlns:sodipodi="http://sodipodi.sourceforge.net/DTD/sodipodi-0.dtd"
   xmlns="http://www.w3.org/2000/svg"
   xmlns:svg="http://www.w3.org/2000/svg"><sodipodi:namedview
     id="namedview1"
     pagecolor="#ffffff"
     bordercolor="#666666"
     borderopacity="1.0"
     inkscape:showpageshadow="2"
     inkscape:pageopacity="0.0"
     inkscape:pagecheckerboard="0"
     inkscape:deskcolor="#d1d1d1"
     inkscape:document-units="mm"
     inkscape:zoom="2.2950936"
     inkscape:cx="523.07236"
     inkscape:cy="457.71554"
     inkscape:window-width="2560"
     inkscape:window-height="1369"
     inkscape:window-x="628"
     inkscape:window-y="-8"
     inkscape:window-maximized="1"
     inkscape:current-layer="layer1"
     showgrid="false" /><defs
     id="defs1"><clipPath
       clipPathUnits="userSpaceOnUse"
       id="clipPath11"><path
         d="m 77.220122,139.0816 c -0.09608,0.22271 -0.405961,0.34057 -0.843161,0.32075 -0.407482,-0.0185 -0.522893,-0.13918 -0.384905,-0.40257 0.120941,-0.23085 0.686313,-0.33141 1.0747,-0.19115 0.20093,0.0726 0.222949,0.11175 0.153366,0.27297 z m -0.697939,-3.12282 c -0.607547,0.65504 -0.804413,0.81031 -1.015254,0.80075 -0.268396,-0.0122 -0.43974,-0.22288 -0.300752,-0.36984 0.05478,-0.058 0.220978,-0.25926 0.369205,-0.4473 0.30766,-0.39028 1.003679,-0.8415 1.17956,-0.76469 0.206902,0.0904 0.111766,0.40963 -0.232759,0.78108 z m -0.439052,6.61131 c -0.213895,0.25712 -0.448122,0.14841 -0.977223,-0.45356 -0.280744,-0.3194 -0.517887,-0.60666 -0.527002,-0.63836 -0.0091,-0.0317 0.06093,-0.14946 0.155681,-0.26171 l 0.172241,-0.20407 0.272343,0.16793 c 0.246121,0.15175 0.956956,0.9801 1.003806,1.16975 0.01048,0.0424 -0.03444,0.14141 -0.09987,0.22002 z m -1.594546,-3.17405 c -0.143886,0.48866 -0.261048,0.69095 -0.639683,1.10449 -0.254942,0.27844 -0.568693,0.6684 -0.69722,0.86656 -0.128534,0.19816 -0.250327,0.35954 -0.270668,0.35862 -0.245748,-0.0111 -0.731277,-0.43682 -1.487419,-1.30409 -0.925563,-1.06158 -0.999474,-1.17832 -1.077338,-1.70155 -0.02379,-0.15997 -0.05774,-0.38685 -0.07534,-0.50419 -0.04267,-0.28419 0.338082,-0.61552 0.916749,-0.79778 0.551746,-0.17378 0.808826,-0.11166 1.113774,0.26915 0.280279,0.34998 0.445082,0.34525 0.912082,-0.0262 0.158044,-0.12571 0.392362,-0.24662 0.520703,-0.26867 0.128328,-0.0221 0.284374,-0.0535 0.346763,-0.07 0.138218,-0.0364 0.43792,0.13292 0.569846,0.3219 0.138237,0.198 0.07373,1.05209 -0.132265,1.75173 z m -1.297062,4.01893 c -0.10542,0.43085 -0.161054,0.52111 -0.316875,0.51405 -0.167738,-0.008 -0.258818,-0.23775 -0.346784,-0.87627 -0.06944,-0.5041 -0.06135,-0.56989 0.08959,-0.73083 0.230968,-0.24624 0.536589,-0.21632 0.628031,0.0615 0.08377,0.25439 0.0695,0.52709 -0.05377,1.03158 z m -0.04189,-7.40489 c -0.195797,0.23577 -0.551244,0.0358 -0.535951,-0.30158 0.0061,-0.13474 -0.0072,-0.3645 -0.02961,-0.51058 -0.0346,-0.22595 -0.01024,-0.27531 0.163314,-0.33073 0.124804,-0.0399 0.276389,-0.0281 0.390393,0.0302 0.158345,0.081 0.18303,0.16006 0.164174,0.52568 -0.01294,0.24125 -0.07939,0.49918 -0.152321,0.58702 z m -2.835439,5.60993 c -0.144457,0.19736 -0.417669,0.49658 -0.607158,0.66494 -0.279138,0.24803 -0.361503,0.28364 -0.434073,0.18765 -0.114509,-0.15143 0.283652,-1.32136 0.447173,-1.31395 0.05994,0.003 0.133453,-0.0512 0.16339,-0.11972 0.07919,-0.18134 0.520785,-0.13847 0.615585,0.0598 0.06071,0.12694 0.02021,0.24101 -0.184917,0.52132 z m -0.229804,-5.19393 c -0.217355,0.16435 -0.648576,-0.0205 -1.18005,-0.5059 -0.472791,-0.4318 -0.720645,-0.8103 -0.454503,-0.69408 0.06881,0.0301 0.117742,-0.004 0.12142,-0.0856 0.0084,-0.18524 0.409707,-0.15959 0.682535,0.0436 0.500618,0.37287 0.971613,0.85905 0.965382,0.99652 -0.0037,0.0817 -0.06437,0.19218 -0.134784,0.24544 z m -1.371341,2.59756 c -0.631999,0.19325 -1.046839,0.19668 -1.256728,0.0104 l -0.185907,-0.16503 0.214966,-0.20437 c 0.171434,-0.16297 0.329023,-0.21012 0.778018,-0.23278 0.670031,-0.0338 0.835618,0.0234 0.823772,0.2847 -0.007,0.15343 -0.08732,0.2194 -0.374121,0.3071 z"
         style="fill:#000000;fill-opacity:1;fill-rule:nonzero;stroke-width:1"
         id="path12"
         inkscape:export-filename="favicon.svg"
         inkscape:export-xdpi="96"
         inkscape:export-ydpi="96"
         sodipodi:nodetypes="cssccsscscscssscssccsssssscsssccsssccsscccssccscsscssccsccssccsssssscsscss" /></clipPath><filter
       inkscape:collect="always"
       style="color-interpolation-filters:sRGB"
       id="filter12"
       x="-0.049037804"
       y="-0.051579121"
       width="1.0980756"
       height="1.1031582"><feGaussianBlur
         inkscape:collect="always"
         stdDeviation="0.32630159"
         id="feGaussianBlur12" /></filter><filter
       style="color-interpolation-filters:sRGB;"
       inkscape:label="Drop Shadow"
       id="filter48"
       x="-1.1190684e-05"
       y="-1.229912e-05"
       width="1.0000224"
       height="1.0000246"><feFlood
         result="flood"
         in="SourceGraphic"
         flood-opacity="0.498039"
         flood-color="rgb(255,255,255)"
         id="feFlood47" /><feGaussianBlur
         result="blur"
         in="SourceGraphic"
         stdDeviation="4.65604e-05"
         id="feGaussianBlur47" /><feOffset
         result="offset"
         in="blur"
         dx="0.000000"
         dy="0.000000"
         id="feOffset47" /><feComposite
         result="comp1"
         operator="out"
         in="flood"
         in2="offset"
         id="feComposite47" /><feComposite
         result="comp2"
         operator="atop"
         in="comp1"
         in2="SourceGraphic"
         id="feComposite48" /></filter><filter
       style="color-interpolation-filters:sRGB;"
       inkscape:label="Drop Shadow"
       id="filter56"
       x="-0.025783336"
       y="-0.028337172"
       width="1.0515667"
       height="1.0566743"><feFlood
         result="flood"
         in="SourceGraphic"
         flood-opacity="0.498039"
         flood-color="rgb(255,255,255)"
         id="feFlood55" /><feGaussianBlur
         result="blur"
         in="SourceGraphic"
         stdDeviation="0.10727516"
         id="feGaussianBlur55" /><feOffset
         result="offset"
         in="blur"
         dx="0.000000"
         dy="0.000000"
         id="feOffset55" /><feComposite
         result="comp1"
         operator="out"
         in="flood"
         in2="offset"
         id="feComposite55" /><feComposite
         result="comp2"
         operator="atop"
         in="comp1"
         in2="SourceGraphic"
         id="feComposite56" /></filter><clipPath
       clipPathUnits="userSpaceOnUse"
       id="clipPath63"><rect
         style="fill:none;fill-opacity:1;fill-rule:nonzero;stroke:#000000;stroke-width:0.676211;stroke-linecap:round;stroke-linejoin:round;stroke-dasharray:none"
         id="rect63"
         width="10.779844"
         height="10.779844"
         x="66.948326"
         y="133.61407" /></clipPath><clipPath
       clipPathUnits="userSpaceOnUse"
       id="clipPath80"><rect
         style="opacity:1;fill:#eeeeec;fill-opacity:0.448105;fill-rule:nonzero;stroke:none;stroke-width:0.899999;stroke-linecap:round;stroke-linejoin:round;stroke-dasharray:none"
         id="rect81"
         width="11.337667"
         height="11.337667"
         x="134.63326"
         y="158.59663" /></clipPath><filter
       style="color-interpolation-filters:sRGB;"
       inkscape:label="Drop Shadow"
       id="filter98"
       x="-0.048811918"
       y="-0.053647164"
       width="1.107793"
       height="1.1296473"><feFlood
         result="flood"
         in="SourceGraphic"
         flood-opacity="0.498039"
         flood-color="rgb(0,0,0)"
         id="feFlood97" /><feGaussianBlur
         result="blur"
         in="SourceGraphic"
         stdDeviation="0.200000"
         id="feGaussianBlur97" /><feOffset
         result="offset"
         in="blur"
         dx="0.100000"
         dy="0.200000"
         id="feOffset97" /><feComposite
         result="comp1"
         operator="in"
         in="flood"
         in2="offset"
         id="feComposite97" /><feComposite
         result="comp2"
         operator="over"
         in="SourceGraphic"
         in2="comp1"
         id="feComposite98" /></filter><filter
       inkscape:collect="always"
       style="color-interpolation-filters:sRGB"
       id="filter103"
       x="-0.051486491"
       y="-0.053497679"
       width="1.102973"
       height="1.1069954"><feGaussianBlur
         inkscape:collect="always"
         stdDeviation="0.18153455"
         id="feGaussianBlur103" /></filter><filter
       inkscape:collect="always"
       style="color-interpolation-filters:sRGB"
       id="filter104"
       x="-0.067799039"
       y="-0.067799039"
       width="1.1355981"
       height="1.1355981"><feGaussianBlur
         inkscape:collect="always"
         stdDeviation="0.18153455"
         id="feGaussianBlur104" /></filter><filter
       inkscape:collect="always"
       style="color-interpolation-filters:sRGB"
       id="filter105"
       x="-0.041787774"
       y="-0.041787774"
       width="1.0835755"
       height="1.0835755"><feGaussianBlur
         inkscape:collect="always"
         stdDeviation="0.18153455"
         id="feGaussianBlur105" /></filter><filter
       inkscape:collect="always"
       style="color-interpolation-filters:sRGB"
       id="filter106"
       x="-0.01441712"
       y="-0.01441712"
       width="1.0288342"
       height="1.0288342"><feGaussianBlur
         inkscape:collect="always"
         stdDeviation="0.11028882"
         id="feGaussianBlur106" /></filter><filter
       style="color-interpolation-filters:sRGB"
       inkscape:label="Drop Shadow"
       id="filter98-7"
       x="-0.068846013"
       y="-0.069599372"
       width="1.1604779"
       height="1.1852691"><feFlood
         result="flood"
         in="SourceGraphic"
         flood-opacity="0.498039"
         flood-color="rgb(0,0,0)"
         id="feFlood97-9" /><feGaussianBlur
         result="blur"
         in="SourceGraphic"
         stdDeviation="0.12589327"
         id="feGaussianBlur97-5" /><feOffset
         result="offset"
         in="blur"
         dx="0.100000"
         dy="0.200000"
         id="feOffset97-4" /><feComposite
         result="comp1"
         operator="in"
         in="flood"
         in2="offset"
         id="feComposite97-3" /><feComposite
         result="comp2"
         operator="over"
         in="SourceGraphic"
         in2="comp1"
         id="feComposite98-1" /></filter><clipPath
       clipPathUnits="userSpaceOnUse"
       id="clipPath106"><rect
         style="opacity:1;fill:#eeeeec;fill-opacity:0.448105;fill-rule:nonzero;stroke:none;stroke-width:0.825627;stroke-linecap:round;stroke-linejoin:round;stroke-dasharray:none"
         id="rect107"
         width="10.400769"
         height="10.400769"
         x="134.97504"
         y="159.05327" /></clipPath><filter
       style="color-interpolation-filters:sRGB"
       inkscape:label="Drop Shadow"
       id="filter112"
       x="-0.0005468602"
       y="0"
       width="1.0238796"
       height="1.0460704"><feFlood
         result="flood"
         in="SourceGraphic"
         flood-opacity="0.498039"
         flood-color="rgb(0,0,0)"
         id="feFlood111" /><feGaussianBlur
         result="blur"
         in="SourceGraphic"
         stdDeviation="0.001 0"
         id="feGaussianBlur111" /><feOffset
         result="offset"
         in="blur"
         dx="0.100000"
         dy="0.200000"
         id="feOffset111" /><feComposite
         result="comp1"
         operator="in"
         in="flood"
         in2="offset"
         id="feComposite111" /><feComposite
         result="comp2"
         operator="over"
         in="SourceGraphic"
         in2="comp1"
         id="feComposite112" /></filter><clipPath
       clipPathUnits="userSpaceOnUse"
       id="clipPath115"><path
         d="m 142.20692,163.95429 c -0.1417,0.48122 -0.25708,0.68043 -0.62995,1.08768 -0.25107,0.2742 -0.56005,0.65824 -0.68662,0.85337 -0.12653,0.19515 -0.24653,0.35407 -0.26655,0.35317 -0.242,-0.0112 -0.72015,-0.43018 -1.46479,-1.28425 -0.91148,-1.04542 -0.98427,-1.1604 -1.06094,-1.67566 -0.0234,-0.15754 -0.0568,-0.38097 -0.0742,-0.49652 -0.042,-0.27987 0.33295,-0.60616 0.90281,-0.78564 0.54334,-0.17114 0.79652,-0.10994 1.09683,0.26506 0.27601,0.34465 0.43831,0.33999 0.8982,-0.0258 0.15564,-0.12375 0.38639,-0.24287 0.51278,-0.26459 0.1264,-0.0218 0.28006,-0.0527 0.34148,-0.0689 0.13617,-0.0358 0.43127,0.13086 0.56119,0.317 0.13617,0.195 0.0725,1.03609 -0.1303,1.72509 z"
         style="mix-blend-mode:normal;fill:#000000;fill-opacity:1;fill-rule:nonzero;stroke:none;stroke-width:0.196957;stroke-dasharray:none;filter:url(#filter112)"
         id="path115"
         inkscape:export-filename="favicon.svg"
         inkscape:export-xdpi="96"
         inkscape:export-ydpi="96"
         sodipodi:nodetypes="sssssscsssccsss"
         transform="matrix(1.7965813,0,0,1.7965813,-119.27776,-160.9814)" /></clipPath><clipPath
       clipPathUnits="userSpaceOnUse"
       id="clipPath5"><rect
         style="opacity:1;fill:#eeeeec;fill-opacity:0.448105;fill-rule:nonzero;stroke:none;stroke-width:0.926894;stroke-linecap:round;stroke-linejoin:round;stroke-dasharray:none"
         id="rect5"
         width="11.676463"
         height="11.676463"
         x="132.89391"
         y="118.81228" /></clipPath><clipPath
       clipPathUnits="userSpaceOnUse"
       id="clipPath12"><rect
         style="opacity:1;fill:#eeeeec;fill-opacity:0.448105;fill-rule:nonzero;stroke:none;stroke-width:1.00386;stroke-linecap:round;stroke-linejoin:round;stroke-dasharray:none"
         id="rect12"
         width="12.646017"
         height="12.646017"
         x="132.57214"
         y="118.20591" /></clipPath></defs><g
     inkscape:label="Ebene 1"
     inkscape:groupmode="layer"
     id="layer1"><circle
       style="opacity:1;fill:#f2e2c4;fill-opacity:1;fill-rule:nonzero;stroke:none;stroke-width:1.07836;stroke-linecap:round;stroke-linejoin:round;stroke-dasharray:none"
       id="path67"
       cx="96.24646"
       cy="145.03551"
       r="9.179821" /><path
       d="m 163.35944,147.6798 c -0.0325,0.0296 -0.27147,0.0446 -0.53123,0.0334 -0.25975,-0.0113 -0.61608,-0.003 -0.79182,0.0176 -0.29605,0.0353 -0.32051,0.0591 -0.33256,0.32482 -0.0106,0.23419 0.0289,0.30556 0.21543,0.38919 0.12564,0.0563 0.29298,0.13937 0.37187,0.18455 0.0789,0.0452 0.23399,0.0862 0.34465,0.0913 0.25254,0.0115 0.63316,0.33212 0.62437,0.52602 -0.0127,0.28069 -0.19965,0.34077 -0.95395,0.30657 -0.71714,-0.0325 -0.73669,-0.0281 -0.79894,0.17957 -0.0945,0.31523 -0.0191,0.37663 0.4905,0.39973 0.34902,0.0158 0.54273,0.0772 0.79281,0.25144 0.38423,0.26764 0.44899,0.40212 0.30784,0.63936 -0.0808,0.13595 -0.18367,0.16781 -0.49573,0.15366 -0.52404,-0.0238 -1.36919,0.0965 -1.66956,0.23762 -0.21409,0.10056 -0.26426,0.0978 -0.43216,-0.0234 -0.28128,-0.20308 -0.3049,-0.51637 -0.19625,-2.60183 l 0.0988,-1.89754 0.23722,-0.14068 c 0.20737,-0.12297 0.36483,-0.12845 1.25058,-0.0435 0.98467,0.0944 1.02078,0.10486 1.27644,0.36931 0.24976,0.25832 0.32156,0.48425 0.19163,0.60292 z m -3.51216,0.51983 c -0.0886,0.0731 -0.21701,0.13043 -0.28545,0.12733 -0.0684,-0.003 -0.16238,0.029 -0.20875,0.0713 -0.0464,0.0423 -0.38916,0.0745 -0.76177,0.0714 -0.61263,-0.005 -0.67822,0.0106 -0.68516,0.16357 -0.007,0.14748 0.0626,0.17778 0.54018,0.23638 0.67,0.0822 1.10753,0.38167 1.0518,0.71993 -0.0402,0.24382 -0.24898,0.31247 -0.899,0.29559 l -0.4363,-0.0114 -0.0226,0.43197 c -0.0142,0.26821 -0.0753,0.48485 -0.16117,0.57146 -0.0761,0.0767 -0.14092,0.19844 -0.14418,0.27049 -0.0161,0.356 -0.53493,0.33481 -0.77399,-0.0316 -0.0589,-0.0903 -0.17772,-0.19424 -0.26409,-0.23106 -0.14868,-0.0634 -0.15027,-0.13535 -0.0299,-1.35183 0.07,-0.70668 0.14396,-1.51065 0.16447,-1.78659 0.0341,-0.45832 0.0629,-0.52116 0.3328,-0.72651 0.26855,-0.2043 0.35583,-0.22206 0.95716,-0.1948 0.72653,0.0329 1.02911,0.17468 1.14876,0.53813 0.0371,0.11288 0.10216,0.18596 0.14445,0.1624 0.10105,-0.0563 0.50529,0.29465 0.49901,0.43315 -0.003,0.0592 -0.0774,0.16746 -0.1659,0.24059 z m -2.93935,-2.53613 c -0.15948,0.52887 -0.733,1.22023 -1.18919,1.43356 -0.23639,0.11053 -0.46185,0.0896 -0.72571,-0.0674 -0.24945,-0.1484 -0.7795,-0.88079 -0.87892,-1.21439 -0.0794,-0.2666 -0.0702,-0.34237 0.0674,-0.55305 0.09,-0.13778 0.30407,-0.29398 0.49136,-0.35856 0.3122,-0.10764 0.35394,-0.10243 0.70457,0.088 0.32763,0.17795 0.38506,0.18754 0.47488,0.0793 0.0562,-0.0677 0.26087,-0.14046 0.45481,-0.16166 0.29044,-0.0318 0.38266,-0.006 0.523,0.14801 0.17629,0.19303 0.18406,0.25362 0.0778,0.60614 z m -0.79218,4.62554 c -0.027,0.16193 -0.12517,0.35919 -0.21819,0.43837 -0.0931,0.0792 -0.17234,0.21452 -0.17625,0.30076 -0.004,0.0863 -0.0656,0.17625 -0.13694,0.2 -0.17678,0.0588 -0.51118,-0.0959 -0.56645,-0.262 -0.029,-0.087 -0.14912,-0.14038 -0.33536,-0.14883 -0.2776,-0.0126 -0.29327,-0.0308 -0.35954,-0.41888 -0.0381,-0.22314 -0.0603,-0.53879 -0.0494,-0.70145 0.0114,-0.16264 0.0181,-0.50856 0.0147,-0.76871 -0.007,-0.60443 0.18459,-0.82121 0.65667,-0.74429 0.17934,0.0292 0.31125,0.0139 0.31353,-0.0365 0.002,-0.0478 0.14475,-0.16538 0.31685,-0.26126 l 0.31292,-0.17432 0.18896,0.25373 c 0.17378,0.23333 0.18489,0.32504 0.13821,1.14133 -0.0281,0.48818 -0.0729,1.0201 -0.0998,1.18203 z m -2.44307,0.3941 c -0.0507,0.0463 -0.17512,0.0805 -0.27642,0.0759 -0.10129,-0.005 -0.22872,0.0406 -0.28317,0.1005 -0.15018,0.16512 -0.98355,0.29825 -1.35001,0.21566 -0.17635,-0.0398 -0.43419,-0.0913 -0.57299,-0.11449 -0.41549,-0.0695 -0.67,-0.21702 -0.90639,-0.52527 l -0.22391,-0.29198 0.10808,-1.22494 c 0.11404,-1.29233 0.22645,-2.12367 0.29628,-2.19107 0.023,-0.0223 0.16377,-0.0762 0.31267,-0.11977 0.175,-0.0513 0.29113,-0.1509 0.32834,-0.28176 0.0469,-0.16493 0.11072,-0.20004 0.34425,-0.18946 l 0.28667,0.013 -0.0416,0.54901 c -0.0227,0.30196 -0.0879,1.07133 -0.14458,1.70971 l -0.10296,1.16069 0.87728,0.0398 c 1.10702,0.0502 1.42858,0.20249 1.4359,0.6801 0.003,0.17058 -0.0367,0.34807 -0.0874,0.3944 z"
       style="fill:#000000"
       id="path1-7"
       sodipodi:nodetypes="cccssscssssccsssccsssccccsccsscccsssscssscscccssscssssccsscscccssccscscsccccccccscsccssccccsccc" /><rect
       style="fill:#b3351a;fill-opacity:1;fill-rule:nonzero;stroke:none;stroke-width:0.964999;stroke-linecap:round;stroke-linejoin:round"
       id="rect6"
       width="3.4039202"
       height="3.372108"
       x="52.044987"
       y="121.84126" /><rect
       style="fill:#d59b3a;fill-opacity:1;fill-rule:nonzero;stroke:none;stroke-width:0.964999;stroke-linecap:round;stroke-linejoin:round"
       id="rect7"
       width="3.4357326"
       height="3.0539844"
       x="52.076797"
       y="125.97686" /><rect
       style="fill:#738c6c;fill-opacity:1;fill-rule:nonzero;stroke:none;stroke-width:0.964999;stroke-linecap:round;stroke-linejoin:round"
       id="rect8"
       width="3.1494217"
       height="3.8492932"
       x="52.013176"
       y="129.60347" /><g
       id="g63"
       clip-path="url(#clipPath63)"
       style="opacity:1"><g
         id="g8"><ellipse
           style="fill:#b3351a;fill-opacity:1;fill-rule:nonzero;stroke:none;stroke-width:3.67398;stroke-linecap:round;stroke-linejoin:round;opacity:1"
           id="ellipse63"
           cx="71.931038"
           cy="138.97429"
           rx="8.09624"
           ry="8.2553015" /><ellipse
           style="fill:#75507b;fill-opacity:1;fill-rule:nonzero;stroke:none;stroke-width:2.95864;stroke-linecap:round;stroke-linejoin:round"
           id="path6"
           cx="71.676422"
           cy="139.09944"
           rx="6.7283096"
           ry="6.4419985" /><ellipse
           style="fill:#d59b3a;fill-opacity:1;fill-rule:nonzero;stroke:none;stroke-width:1.10228;stroke-linecap:round;stroke-linejoin:round"
           id="path8"
           cx="73.811623"
           cy="134.47104"
           rx="4.5931125"
           ry="4.1125612" /><ellipse
           style="fill:#738c6c;fill-opacity:1;fill-rule:nonzero;stroke:none;stroke-width:1.10228;stroke-linecap:round;stroke-linejoin:round"
           id="ellipse8"
           cx="76.324799"
           cy="136.77"
           rx="4.5931125"
           ry="4.1125612" /></g><g
         id="g11"
         clip-path="url(#clipPath11)"
         style="filter:url(#filter12)"><ellipse
           style="fill:#75507b;fill-opacity:1;fill-rule:nonzero;stroke:none;stroke-width:2.95864;stroke-linecap:round;stroke-linejoin:round"
           id="ellipse9"
           cx="71.676422"
           cy="139.09944"
           rx="6.7283096"
           ry="6.4419985" /><ellipse
           style="fill:#d59b3a;fill-opacity:1;fill-rule:nonzero;stroke:none;stroke-width:1.10228;stroke-linecap:round;stroke-linejoin:round"
           id="ellipse10"
           cx="73.811623"
           cy="134.47104"
           rx="4.5931125"
           ry="4.1125612" /><ellipse
           style="fill:#738c6c;fill-opacity:1;fill-rule:nonzero;stroke:none;stroke-width:1.10228;stroke-linecap:round;stroke-linejoin:round"
           id="ellipse11"
           cx="76.324799"
           cy="136.77"
           rx="4.5931125"
           ry="4.1125612" /></g><path
         d="m 77.220123,139.0816 c -0.09608,0.22271 -0.40596,0.34057 -0.843161,0.32075 -0.407481,-0.0185 -0.522893,-0.13918 -0.384904,-0.40257 0.120939,-0.23085 0.686313,-0.33141 1.0747,-0.19115 0.20093,0.0726 0.222947,0.11175 0.153365,0.27297 z m -0.69794,-3.12282 c -0.607547,0.65504 -0.804411,0.81031 -1.015254,0.80075 -0.268395,-0.0122 -0.439738,-0.22288 -0.30075,-0.36984 0.05478,-0.058 0.220978,-0.25926 0.369205,-0.4473 0.30766,-0.39028 1.003678,-0.8415 1.17956,-0.76469 0.206901,0.0904 0.111765,0.40963 -0.232761,0.78108 z m -0.439051,6.61131 c -0.213894,0.25712 -0.448121,0.14841 -0.977223,-0.45356 -0.280743,-0.3194 -0.517888,-0.60666 -0.527002,-0.63836 -0.0091,-0.0317 0.06093,-0.14946 0.155682,-0.26171 l 0.172239,-0.20407 0.272344,0.16793 c 0.24612,0.15175 0.956957,0.9801 1.003806,1.16975 0.01049,0.0424 -0.03444,0.14141 -0.09987,0.22002 z m -1.594545,-3.17405 c -0.143887,0.48866 -0.261049,0.69095 -0.639685,1.10449 -0.254941,0.27844 -0.568692,0.6684 -0.697218,0.86656 -0.128536,0.19816 -0.250329,0.35954 -0.270669,0.35862 -0.245747,-0.0111 -0.731278,-0.43682 -1.487418,-1.30409 -0.925565,-1.06158 -0.999474,-1.17832 -1.077339,-1.70155 -0.02378,-0.15997 -0.05774,-0.38685 -0.07534,-0.50419 -0.04267,-0.28419 0.338081,-0.61552 0.916749,-0.79778 0.551746,-0.17378 0.808826,-0.11166 1.113774,0.26915 0.280278,0.34998 0.445081,0.34525 0.912082,-0.0262 0.158045,-0.12571 0.392361,-0.24662 0.520702,-0.26867 0.12833,-0.0221 0.284376,-0.0535 0.346764,-0.07 0.138218,-0.0364 0.437919,0.13292 0.569847,0.3219 0.138235,0.198 0.07373,1.05209 -0.132265,1.75173 z m -1.297063,4.01893 c -0.10542,0.43085 -0.161054,0.52111 -0.316874,0.51405 -0.167738,-0.008 -0.258819,-0.23775 -0.346784,-0.87627 -0.06944,-0.5041 -0.06135,-0.56989 0.08959,-0.73083 0.230968,-0.24624 0.536587,-0.21632 0.62803,0.0615 0.08377,0.25439 0.0695,0.52709 -0.05377,1.03158 z m -0.04189,-7.40489 c -0.195798,0.23577 -0.551245,0.0358 -0.535952,-0.30158 0.0061,-0.13474 -0.0072,-0.3645 -0.02961,-0.51058 -0.0346,-0.22595 -0.01024,-0.27531 0.163316,-0.33073 0.124802,-0.0399 0.276387,-0.0281 0.390392,0.0302 0.158345,0.081 0.18303,0.16006 0.164173,0.52568 -0.01294,0.24125 -0.07939,0.49918 -0.15232,0.58702 z m -2.835441,5.60993 c -0.144456,0.19736 -0.417667,0.49658 -0.607156,0.66494 -0.279138,0.24803 -0.361505,0.28364 -0.434073,0.18765 -0.11451,-0.15143 0.28365,-1.32136 0.447172,-1.31395 0.05994,0.003 0.133454,-0.0512 0.16339,-0.11972 0.07919,-0.18134 0.520785,-0.13847 0.615585,0.0598 0.06071,0.12694 0.02021,0.24101 -0.184918,0.52132 z m -0.229803,-5.19393 c -0.217355,0.16435 -0.648577,-0.0205 -1.18005,-0.5059 -0.472791,-0.4318 -0.720644,-0.8103 -0.454504,-0.69408 0.06881,0.0301 0.117743,-0.004 0.121421,-0.0856 0.0084,-0.18524 0.409707,-0.15959 0.682534,0.0436 0.500618,0.37287 0.971614,0.85905 0.965382,0.99652 -0.0037,0.0817 -0.06437,0.19218 -0.134783,0.24544 z m -1.37134,2.59756 c -0.632,0.19325 -1.046841,0.19668 -1.256729,0.0104 l -0.185908,-0.16503 0.214966,-0.20437 c 0.171436,-0.16297 0.329023,-0.21012 0.77802,-0.23278 0.670029,-0.0338 0.835617,0.0234 0.823772,0.2847 -0.007,0.15343 -0.08732,0.2194 -0.374121,0.3071 z"
         style="mix-blend-mode:normal;fill:#ffffff;fill-opacity:1;fill-rule:nonzero;stroke:none;stroke-width:0.2;stroke-dasharray:none;filter:url(#filter56)"
         id="path48"
         inkscape:export-filename="favicon.svg"
         inkscape:export-xdpi="96"
         inkscape:export-ydpi="96"
         sodipodi:nodetypes="cssccsscscscssscssccsssssscsssccsssccsscccssccscsscssccsccssccsssssscsscss" /></g><ellipse
       style="opacity:1;fill:#f288eb;fill-opacity:1;fill-rule:nonzero;stroke:none;stroke-width:0.899999;stroke-linecap:round;stroke-linejoin:round;stroke-dasharray:none"
       id="path63"
       cx="96.821182"
       cy="144.87457"
       rx="4.231041"
       ry="4.0719795" /><circle
       style="opacity:1;fill:#f299da;fill-opacity:1;fill-rule:nonzero;stroke:none;stroke-width:0.899999;stroke-linecap:round;stroke-linejoin:round;stroke-dasharray:none"
       id="path65"
       cx="94.437714"
       cy="142.40991"
       r="3.2130463" /><circle
       style="opacity:1;fill:#f2ca52;fill-opacity:1;fill-rule:nonzero;stroke:none;stroke-width:0.899999;stroke-linecap:round;stroke-linejoin:round;stroke-dasharray:none"
       id="path66"
       cx="95.224197"
       cy="147.12643"
       r="5.2130427" /><circle
       style="opacity:1;fill:#f2ca52;fill-opacity:1;fill-rule:nonzero;stroke:none;stroke-width:0.899999;stroke-linecap:round;stroke-linejoin:round;stroke-dasharray:none"
       id="circle73"
       cx="110.00779"
       cy="133.63264"
       r="5.2130427" /><path
       d="m 113.39287,133.50741 c -0.0678,0.15721 -0.28655,0.2404 -0.59516,0.22641 -0.28764,-0.0131 -0.3691,-0.0982 -0.2717,-0.28416 0.0854,-0.16295 0.48445,-0.23394 0.75861,-0.13493 0.14183,0.0512 0.15737,0.0789 0.10825,0.19268 z m -0.49266,-2.20432 c -0.42885,0.46238 -0.56782,0.57198 -0.71664,0.56523 -0.18946,-0.009 -0.3104,-0.15732 -0.21229,-0.26106 0.0387,-0.0409 0.15598,-0.183 0.2606,-0.31574 0.21717,-0.27549 0.70848,-0.59399 0.83263,-0.53977 0.14605,0.0638 0.0789,0.28915 -0.1643,0.55134 z m -0.30991,4.66676 c -0.15099,0.18149 -0.31632,0.10476 -0.6898,-0.32016 -0.19817,-0.22545 -0.36557,-0.42822 -0.372,-0.4506 -0.006,-0.0224 0.043,-0.1055 0.10989,-0.18473 l 0.12158,-0.14405 0.19224,0.11854 c 0.17373,0.10711 0.6755,0.69182 0.70857,0.82569 0.007,0.0299 -0.0243,0.0998 -0.0705,0.15531 z m -1.12555,-2.24048 c -0.10157,0.34493 -0.18427,0.48772 -0.45154,0.77963 -0.17996,0.19654 -0.40143,0.47181 -0.49215,0.61168 -0.0907,0.13988 -0.17671,0.25379 -0.19106,0.25314 -0.17346,-0.008 -0.51619,-0.30834 -1.04993,-0.92052 -0.65333,-0.74934 -0.70551,-0.83175 -0.76046,-1.20108 -0.0168,-0.11292 -0.0407,-0.27307 -0.0532,-0.3559 -0.0301,-0.2006 0.23865,-0.43448 0.64711,-0.56313 0.38946,-0.12267 0.57093,-0.0788 0.78619,0.18999 0.19784,0.24704 0.31417,0.2437 0.64381,-0.0185 0.11156,-0.0887 0.27696,-0.17408 0.36755,-0.18965 0.0906,-0.0156 0.20074,-0.0378 0.24477,-0.0494 0.0976,-0.0257 0.30912,0.0938 0.40225,0.22722 0.0976,0.13977 0.052,0.74265 -0.0934,1.23651 z m -0.91557,2.83686 c -0.0744,0.30412 -0.11368,0.36784 -0.22367,0.36285 -0.11841,-0.006 -0.1827,-0.16782 -0.24479,-0.61853 -0.049,-0.35584 -0.0433,-0.40227 0.0632,-0.51588 0.16303,-0.17381 0.37876,-0.15269 0.44331,0.0434 0.0592,0.17957 0.0491,0.37206 -0.038,0.72817 z m -0.0296,-5.22693 c -0.1382,0.16643 -0.3891,0.0253 -0.37831,-0.21287 0.004,-0.0951 -0.005,-0.2573 -0.0209,-0.36041 -0.0244,-0.15949 -0.007,-0.19433 0.11529,-0.23345 0.0881,-0.0282 0.19509,-0.0198 0.27556,0.0213 0.11177,0.0572 0.1292,0.11299 0.11589,0.37107 -0.009,0.17029 -0.056,0.35236 -0.10752,0.41436 z m -2.00146,3.95991 c -0.10197,0.13931 -0.29482,0.35052 -0.42857,0.46937 -0.19704,0.17507 -0.25519,0.20021 -0.30641,0.13245 -0.0808,-0.10689 0.20022,-0.93271 0.31565,-0.92748 0.0423,0.002 0.0942,-0.0361 0.11534,-0.0845 0.0559,-0.128 0.3676,-0.0977 0.43452,0.0422 0.0428,0.0896 0.0143,0.17013 -0.13053,0.36799 z m -0.16221,-3.66626 c -0.15343,0.11601 -0.45782,-0.0145 -0.83297,-0.3571 -0.33373,-0.3048 -0.50868,-0.57197 -0.32082,-0.48994 0.0486,0.0212 0.0831,-0.003 0.0857,-0.0604 0.006,-0.13076 0.28919,-0.11265 0.48178,0.0308 0.35337,0.26319 0.68583,0.60638 0.68143,0.70341 -0.003,0.0577 -0.0455,0.13566 -0.0951,0.17325 z m -0.968,1.83355 c -0.44611,0.13641 -0.73893,0.13883 -0.88709,0.007 l -0.13123,-0.11649 0.15174,-0.14426 c 0.12101,-0.11504 0.23225,-0.14832 0.54919,-0.16431 0.47295,-0.0239 0.58984,0.0165 0.58147,0.20096 -0.005,0.1083 -0.0616,0.15487 -0.26408,0.21677 z"
       style="fill:#f23054;fill-opacity:1;fill-rule:nonzero;stroke:none;stroke-width:0.141175;stroke-dasharray:none"
       id="path37"
       inkscape:export-filename="favicon.svg"
       inkscape:export-xdpi="96"
       inkscape:export-ydpi="96"
       sodipodi:nodetypes="cssccsscscscssscssccsssssscsssccsssccsscccssccscsscssccsccssccsssssscsscss" /><path
       d="m 101.51345,145.58443 c -0.62133,0.1291 -1.722611,0.1399 -1.717031,0.0169 0.01,-0.21836 0.294021,-0.58747 0.474441,-0.61636 0.6502,-0.10411 1.16826,-0.0839 1.40949,0.0549 0.38969,0.22444 0.32278,0.44274 -0.1669,0.54448 z m -1.32452,-3.71857 c -0.569635,0.5104 -0.814245,0.67761 -0.956705,0.65403 -0.10528,-0.0174 -0.20569,-0.0474 -0.22313,-0.0665 -0.10447,-0.11438 0.81679,-1.24337 1.175245,-1.44024 0.34187,-0.18777 0.5132,-0.18424 0.65775,0.0135 0.10121,0.13847 0.0377,0.22014 -0.65316,0.83911 z m 0.11059,7.77354 c -0.11855,0.16985 -0.355248,0.0247 -1.012968,-0.6211 -0.30025,-0.29481 -0.60741,-0.5742 -0.68258,-0.62086 -0.12616,-0.0783 -0.12369,-0.10471 0.032,-0.34282 0.0927,-0.1419 0.21939,-0.25569 0.28145,-0.25288 0.30964,0.014 1.02198,0.68395 1.345938,1.26578 0.14802,0.26583 0.15649,0.39959 0.0362,0.57188 z m -1.969108,-4.76654 c -0.16983,0.34191 -0.59911,1.1043 -0.95396,1.69421 -0.64345,1.06966 -0.64606,1.07256 -0.97052,1.08109 -0.25696,0.007 -0.37672,-0.0432 -0.56978,-0.23771 -0.13444,-0.13545 -0.52302,-0.51603 -0.8635,-0.84573 -0.80553,-0.78006 -1.14958,-1.36469 -1.13504,-1.92876 0.0124,-0.47273 0.1658,-0.69239 0.69918,-0.99962 0.27033,-0.15571 0.38811,-0.17194 0.81023,-0.11161 0.31343,0.0448 0.55599,0.13223 0.66378,0.23926 0.20282,0.20139 0.39285,0.15718 0.53716,-0.12495 0.0587,-0.11478 0.26873,-0.27188 0.47246,-0.35345 0.70448,-0.28204 1.40723,-0.0919 1.56072,0.42216 0.11447,0.38342 0.0968,0.46532 -0.25073,1.16511 z m -1.45139,5.52794 c -0.0252,0.1154 -0.0718,0.3346 -0.10367,0.4871 -0.0581,0.27791 -0.31751,0.44958 -0.53623,0.35484 -0.0926,-0.04 -0.20036,-0.29343 -0.21248,-0.49918 -0.003,-0.0468 -0.0229,-0.29557 -0.0449,-0.55294 -0.0845,-0.99132 -0.0761,-1.08285 0.11886,-1.29718 0.14638,-0.16091 0.23877,-0.19321 0.42055,-0.14704 0.12813,0.0325 0.26314,0.12261 0.30003,0.20015 0.0816,0.17163 0.12116,1.16421 0.0579,1.45426 z m -0.13247,-8.32413 c -0.0919,0.18656 -0.36607,0.28662 -0.51221,0.18688 -0.0629,-0.0429 -0.0499,-0.33878 0.0445,-1.02583 0.16899,-1.22466 0.16464,-1.15987 0.10387,-1.54724 -0.0454,-0.28942 -0.0335,-0.32417 0.0994,-0.29213 0.10972,0.0264 0.17428,0.17642 0.23617,0.54875 0.11674,0.70233 0.13266,1.91676 0.0279,2.12956 z m -2.54916,5.73856 c -0.12694,0.0909 -0.26257,0.16376 -0.3014,0.162 -0.0389,-0.002 -0.2701,0.26538 -0.51396,0.59363 -0.44324,0.59669 -0.69774,0.85204 -0.77016,0.77274 -0.11186,-0.12248 -0.0147,-0.7331 0.15715,-0.98771 0.10473,-0.15511 0.17513,-0.30937 0.15651,-0.34279 -0.0186,-0.0334 0.16217,-0.22815 0.40177,-0.43273 0.47202,-0.40303 0.75284,-0.45865 0.97252,-0.19263 0.17432,0.2111 0.16903,0.23319 -0.10246,0.42749 z m -0.25171,-4.50736 c -0.07893,0 -0.20439,0.0422 -0.28784,0.0384 -0.36662,-0.0166 -2.04467,-1.01153 -2.39492,-1.41994 -0.19882,-0.23183 -0.1691,-0.41609 0.0869,-0.5385 0.13064,-0.0624 0.29437,0.0143 0.83569,0.39254 0.37026,0.25864 0.95078,0.64543 1.29005,0.85954 0.60427,0.38135 0.75695,0.66796 0.47015,0.66796 z m -1.02218,2.23847 c -0.0452,0.0647 -0.37056,0.13197 -0.79008,0.16342 -0.39226,0.0294 -0.77885,0.0848 -0.8591,0.12306 -0.22897,0.10924 -0.8021,0.0537 -0.90932,-0.0881 -0.1447,-0.19136 0.15072,-0.51181 0.62042,-0.67296 0.55375,-0.19 1.619,-0.1354 1.85138,0.0949 0.18979,0.18808 0.1974,0.22136 0.0867,0.37967 z"
       style="fill:#000000"
       id="path1-1"
       sodipodi:nodetypes="ccsccccsssscccsscssccsscsscssssssscscccscccccscscscccccscsssccscsccssssscsssss" /><g
       id="g76"><circle
         style="opacity:1;fill:#f2e2c4;fill-opacity:1;fill-rule:nonzero;stroke:none;stroke-width:1.07836;stroke-linecap:round;stroke-linejoin:round;stroke-dasharray:none"
         id="circle74"
         cx="112.52289"
         cy="163.39516"
         r="9.179821" /><ellipse
         style="opacity:1;fill:#f288eb;fill-opacity:1;fill-rule:nonzero;stroke:none;stroke-width:0.899999;stroke-linecap:round;stroke-linejoin:round;stroke-dasharray:none"
         id="ellipse74"
         cx="113.09761"
         cy="163.23422"
         rx="4.231041"
         ry="4.0719795" /><circle
         style="opacity:1;fill:#f299da;fill-opacity:1;fill-rule:nonzero;stroke:none;stroke-width:0.899999;stroke-linecap:round;stroke-linejoin:round;stroke-dasharray:none"
         id="circle75"
         cx="110.71414"
         cy="160.76956"
         r="3.2130463" /><circle
         style="opacity:1;fill:#f2ca52;fill-opacity:1;fill-rule:nonzero;stroke:none;stroke-width:0.899999;stroke-linecap:round;stroke-linejoin:round;stroke-dasharray:none"
         id="circle76"
         cx="111.50063"
         cy="165.48608"
         r="5.2130427" /><path
         d="m 117.78988,163.94407 c -0.62133,0.1291 -1.72262,0.1399 -1.71704,0.0169 0.01,-0.21836 0.29403,-0.58747 0.47445,-0.61636 0.6502,-0.10411 1.16826,-0.0839 1.40949,0.0549 0.38969,0.22444 0.32278,0.44274 -0.1669,0.54448 z m -1.32452,-3.71857 c -0.56964,0.5104 -0.81425,0.67761 -0.95671,0.65403 -0.10528,-0.0174 -0.20569,-0.0474 -0.22313,-0.0665 -0.10447,-0.11438 0.81679,-1.24337 1.17525,-1.44024 0.34187,-0.18777 0.5132,-0.18424 0.65775,0.0135 0.10121,0.13847 0.0377,0.22014 -0.65316,0.83911 z m 0.11059,7.77354 c -0.11855,0.16985 -0.35525,0.0247 -1.01297,-0.6211 -0.30025,-0.29481 -0.60741,-0.5742 -0.68258,-0.62086 -0.12616,-0.0783 -0.12369,-0.10471 0.032,-0.34282 0.0927,-0.1419 0.21939,-0.25569 0.28145,-0.25288 0.30964,0.014 1.02198,0.68395 1.34594,1.26578 0.14802,0.26583 0.15649,0.39959 0.0362,0.57188 z m -1.96911,-4.76654 c -0.16983,0.34191 -0.59911,1.1043 -0.95396,1.69421 -0.64345,1.06966 -0.64606,1.07256 -0.97052,1.08109 -0.25696,0.007 -0.37672,-0.0432 -0.56978,-0.23771 -0.13444,-0.13545 -0.52302,-0.51603 -0.8635,-0.84573 -0.80553,-0.78006 -1.14958,-1.36469 -1.13504,-1.92876 0.0124,-0.47273 0.1658,-0.69239 0.69918,-0.99962 0.27033,-0.15571 0.38811,-0.17194 0.81023,-0.11161 0.31343,0.0448 0.55599,0.13223 0.66378,0.23926 0.20282,0.20139 0.39285,0.15718 0.53716,-0.12495 0.0587,-0.11478 0.26873,-0.27188 0.47246,-0.35345 0.70448,-0.28204 1.40723,-0.0919 1.56072,0.42216 0.11447,0.38342 0.0968,0.46532 -0.25073,1.16511 z m -1.45139,5.52794 c -0.0252,0.1154 -0.0718,0.3346 -0.10367,0.4871 -0.0581,0.27791 -0.31751,0.44958 -0.53623,0.35484 -0.0926,-0.04 -0.20036,-0.29343 -0.21248,-0.49918 -0.003,-0.0468 -0.0229,-0.29557 -0.0449,-0.55294 -0.0845,-0.99132 -0.0761,-1.08285 0.11886,-1.29718 0.14638,-0.16091 0.23877,-0.19321 0.42055,-0.14704 0.12813,0.0325 0.26314,0.12261 0.30003,0.20015 0.0816,0.17163 0.12116,1.16421 0.0579,1.45426 z m -0.13247,-8.32413 c -0.0919,0.18656 -0.36607,0.28662 -0.51221,0.18688 -0.0629,-0.0429 -0.0499,-0.33878 0.0445,-1.02583 0.16899,-1.22466 0.16464,-1.15987 0.10387,-1.54724 -0.0454,-0.28942 -0.0335,-0.32417 0.0994,-0.29213 0.10972,0.0264 0.17428,0.17642 0.23617,0.54875 0.11674,0.70233 0.13266,1.91676 0.0279,2.12956 z m -2.54916,5.73856 c -0.12694,0.0909 -0.26257,0.16376 -0.3014,0.162 -0.0389,-0.002 -0.2701,0.26538 -0.51396,0.59363 -0.44324,0.59669 -0.69774,0.85204 -0.77016,0.77274 -0.11186,-0.12248 -0.0147,-0.7331 0.15715,-0.98771 0.10473,-0.15511 0.17513,-0.30937 0.15651,-0.34279 -0.0186,-0.0334 0.16217,-0.22815 0.40177,-0.43273 0.47202,-0.40303 0.75284,-0.45865 0.97252,-0.19263 0.17432,0.2111 0.16903,0.23319 -0.10246,0.42749 z m -0.25171,-4.50736 c -0.0789,0 -0.20439,0.0422 -0.28784,0.0384 -0.36662,-0.0166 -2.04467,-1.01153 -2.39492,-1.41994 -0.19882,-0.23183 -0.1691,-0.41609 0.0869,-0.5385 0.13064,-0.0624 0.29437,0.0143 0.83569,0.39254 0.37026,0.25864 0.95078,0.64543 1.29005,0.85954 0.60427,0.38135 0.75695,0.66796 0.47015,0.66796 z m -1.02218,2.23847 c -0.0452,0.0647 -0.37056,0.13197 -0.79008,0.16342 -0.39226,0.0294 -0.77885,0.0848 -0.8591,0.12306 -0.22897,0.10924 -0.8021,0.0537 -0.90932,-0.0881 -0.1447,-0.19136 0.15072,-0.51181 0.62042,-0.67296 0.55375,-0.19 1.619,-0.1354 1.85138,0.0949 0.18979,0.18808 0.1974,0.22136 0.0867,0.37967 z"
         style="fill:#000000"
         id="path76"
         sodipodi:nodetypes="ccsccccsssscccsscssccsscsscssssssscscccscccccscscscccccscsssccscsccssssscsssss" /></g><rect
       style="opacity:1;fill:#eeeeec;fill-opacity:0.44810542;fill-rule:nonzero;stroke:none;stroke-width:0.899999;stroke-linecap:round;stroke-linejoin:round;stroke-dasharray:none"
       id="rect76"
       width="11.337667"
       height="11.337667"
       x="106.61911"
       y="157.73068" /><g
       id="g79"
       clip-path="url(#clipPath80)"
       inkscape:export-filename="icon2.svg"
       inkscape:export-xdpi="96"
       inkscape:export-ydpi="96"
       transform="translate(0.47240284,-3.3927113)"><circle
         style="fill:#f2e2c4;fill-opacity:1;fill-rule:nonzero;stroke:none;stroke-width:1.07836;stroke-linecap:round;stroke-linejoin:round;stroke-dasharray:none"
         id="circle77"
         cx="140.40756"
         cy="164.05891"
         r="9.179821" /><ellipse
         style="fill:#f288eb;fill-opacity:1;fill-rule:nonzero;stroke:none;stroke-width:0.899999;stroke-linecap:round;stroke-linejoin:round;stroke-dasharray:none"
         id="ellipse77"
         cx="140.98228"
         cy="163.89798"
         rx="4.231041"
         ry="4.0719795" /><circle
         style="fill:#f299da;fill-opacity:1;fill-rule:nonzero;stroke:none;stroke-width:0.899999;stroke-linecap:round;stroke-linejoin:round;stroke-dasharray:none"
         id="circle78"
         cx="138.59882"
         cy="161.43332"
         r="3.2130463" /><circle
         style="fill:#f2ca52;fill-opacity:1;fill-rule:nonzero;stroke:none;stroke-width:0.899999;stroke-linecap:round;stroke-linejoin:round;stroke-dasharray:none"
         id="circle79"
         cx="139.3853"
         cy="166.14984"
         r="5.2130427" /><path
         d="m 145.12893,163.95528 c -0.0946,0.21933 -0.39978,0.33539 -0.83033,0.31588 -0.40129,-0.0183 -0.51494,-0.13701 -0.37905,-0.39644 0.11914,-0.22734 0.67587,-0.32638 1.05836,-0.18825 0.19787,0.0714 0.21955,0.11008 0.15102,0.26881 z m -0.68733,-3.07531 c -0.5983,0.64508 -0.79218,0.79799 -0.9998,0.78857 -0.26432,-0.0126 -0.43305,-0.21948 -0.29617,-0.36421 0.054,-0.0571 0.21761,-0.25531 0.36357,-0.4405 0.30298,-0.38434 0.98842,-0.82869 1.16162,-0.75305 0.20376,0.089 0.11008,0.40341 -0.22922,0.76919 z m -0.43236,6.51073 c -0.21065,0.25321 -0.44131,0.14616 -0.96236,-0.44666 -0.27647,-0.31453 -0.51002,-0.59742 -0.51899,-0.62864 -0.008,-0.0313 0.06,-0.14719 0.15331,-0.25773 l 0.16962,-0.20097 0.2682,0.16538 c 0.24238,0.14944 0.94241,0.96518 0.98855,1.15195 0.01,0.0417 -0.0339,0.13923 -0.0984,0.21667 z m -1.57029,-3.12575 c -0.1417,0.48122 -0.25708,0.68043 -0.62995,1.08768 -0.25107,0.2742 -0.56005,0.65824 -0.68662,0.85337 -0.12653,0.19515 -0.24653,0.35407 -0.26655,0.35317 -0.242,-0.0112 -0.72015,-0.43018 -1.46479,-1.28425 -0.91148,-1.04542 -0.98427,-1.1604 -1.06094,-1.67566 -0.0234,-0.15754 -0.0568,-0.38097 -0.0742,-0.49652 -0.042,-0.27987 0.33295,-0.60616 0.90281,-0.78564 0.54334,-0.17114 0.79652,-0.10994 1.09683,0.26506 0.27601,0.34465 0.43831,0.33999 0.8982,-0.0258 0.15564,-0.12375 0.38639,-0.24287 0.51278,-0.26459 0.1264,-0.0218 0.28006,-0.0527 0.34148,-0.0689 0.13617,-0.0358 0.43127,0.13086 0.56119,0.317 0.13617,0.195 0.0725,1.03609 -0.1303,1.72509 z m -1.27733,3.95778 c -0.1038,0.42429 -0.1586,0.51319 -0.31205,0.50622 -0.1652,-0.008 -0.25489,-0.23413 -0.34152,-0.86293 -0.0684,-0.49644 -0.0604,-0.56121 0.0882,-0.71971 0.22744,-0.24249 0.52841,-0.21303 0.61847,0.0605 0.0826,0.25053 0.0685,0.51908 -0.053,1.0159 z m -0.0413,-7.29224 c -0.19281,0.23219 -0.54285,0.0353 -0.52779,-0.29698 0.006,-0.13268 -0.007,-0.35897 -0.0292,-0.50282 -0.034,-0.22251 -0.01,-0.27111 0.16084,-0.32569 0.12292,-0.0393 0.27218,-0.0276 0.38445,0.0297 0.15593,0.0798 0.18025,0.15763 0.16168,0.51769 -0.0126,0.23757 -0.0781,0.49158 -0.15001,0.57808 z m -2.79229,5.52459 c -0.14227,0.19435 -0.41132,0.48902 -0.59791,0.65483 -0.2749,0.24424 -0.35603,0.27932 -0.42749,0.18478 -0.11272,-0.14912 0.27934,-1.30125 0.44038,-1.29395 0.059,0.003 0.13142,-0.0504 0.16091,-0.11789 0.078,-0.17858 0.51285,-0.1363 0.60621,0.0589 0.0597,0.12501 0.0199,0.23736 -0.1821,0.5134 z m -0.22631,-5.11491 c -0.21405,0.16185 -0.63872,-0.0202 -1.1621,-0.4982 -0.46559,-0.42523 -0.70967,-0.79797 -0.44758,-0.68353 0.0678,0.0296 0.11593,-0.004 0.11956,-0.0843 0.008,-0.18243 0.40346,-0.15717 0.67214,0.043 0.493,0.36718 0.95682,0.84597 0.95069,0.98134 -0.004,0.0805 -0.0635,0.18927 -0.13268,0.24171 z m -1.35048,2.55804 c -0.62238,0.19031 -1.03091,0.19369 -1.23761,0.01 l -0.18308,-0.16252 0.2117,-0.20126 c 0.16882,-0.1605 0.32402,-0.20693 0.76619,-0.22924 0.65982,-0.0333 0.8229,0.023 0.81122,0.28037 -0.007,0.15109 -0.0859,0.21606 -0.36842,0.30242 z"
         style="fill:#000000;fill-opacity:1;fill-rule:nonzero;stroke:none;stroke-width:0.196957;stroke-dasharray:none"
         id="path77"
         inkscape:export-filename="favicon.svg"
         inkscape:export-xdpi="96"
         inkscape:export-ydpi="96"
         sodipodi:nodetypes="cssccsscscscssscssccsssssscsssccsssccsscccssccscsscssccsccssccsssssscsscss" /><path
         d="m 145.12893,163.95528 c -0.0946,0.21933 -0.39978,0.33539 -0.83033,0.31588 -0.40129,-0.0183 -0.51494,-0.13701 -0.37905,-0.39644 0.11914,-0.22734 0.67587,-0.32638 1.05836,-0.18825 0.19787,0.0714 0.21955,0.11008 0.15102,0.26881 z m -0.68733,-3.07531 c -0.5983,0.64508 -0.79218,0.79799 -0.9998,0.78857 -0.26432,-0.0126 -0.43305,-0.21948 -0.29617,-0.36421 0.054,-0.0571 0.21761,-0.25531 0.36357,-0.4405 0.30298,-0.38434 0.98842,-0.82869 1.16162,-0.75305 0.20376,0.089 0.11008,0.40341 -0.22922,0.76919 z m -0.43236,6.51073 c -0.21065,0.25321 -0.44131,0.14616 -0.96236,-0.44666 -0.27647,-0.31453 -0.51002,-0.59742 -0.51899,-0.62864 -0.008,-0.0313 0.06,-0.14719 0.15331,-0.25773 l 0.16962,-0.20097 0.2682,0.16538 c 0.24238,0.14944 0.94241,0.96518 0.98855,1.15195 0.01,0.0417 -0.0339,0.13923 -0.0984,0.21667 z m -1.57029,-3.12575 c -0.1417,0.48122 -0.25708,0.68043 -0.62995,1.08768 -0.25107,0.2742 -0.56005,0.65824 -0.68662,0.85337 -0.12653,0.19515 -0.24653,0.35407 -0.26655,0.35317 -0.242,-0.0112 -0.72015,-0.43018 -1.46479,-1.28425 -0.91148,-1.04542 -0.98427,-1.1604 -1.06094,-1.67566 -0.0234,-0.15754 -0.0568,-0.38097 -0.0742,-0.49652 -0.042,-0.27987 0.33295,-0.60616 0.90281,-0.78564 0.54334,-0.17114 0.79652,-0.10994 1.09683,0.26506 0.27601,0.34465 0.43831,0.33999 0.8982,-0.0258 0.15564,-0.12375 0.38639,-0.24287 0.51278,-0.26459 0.1264,-0.0218 0.28006,-0.0527 0.34148,-0.0689 0.13617,-0.0358 0.43127,0.13086 0.56119,0.317 0.13617,0.195 0.0725,1.03609 -0.1303,1.72509 z m -1.27733,3.95778 c -0.1038,0.42429 -0.1586,0.51319 -0.31205,0.50622 -0.1652,-0.008 -0.25489,-0.23413 -0.34152,-0.86293 -0.0684,-0.49644 -0.0604,-0.56121 0.0882,-0.71971 0.22744,-0.24249 0.52841,-0.21303 0.61847,0.0605 0.0826,0.25053 0.0685,0.51908 -0.053,1.0159 z m -0.0413,-7.29224 c -0.19281,0.23219 -0.54285,0.0353 -0.52779,-0.29698 0.006,-0.13268 -0.007,-0.35897 -0.0292,-0.50282 -0.034,-0.22251 -0.01,-0.27111 0.16084,-0.32569 0.12292,-0.0393 0.27218,-0.0276 0.38445,0.0297 0.15593,0.0798 0.18025,0.15763 0.16168,0.51769 -0.0126,0.23757 -0.0781,0.49158 -0.15001,0.57808 z m -2.79229,5.52459 c -0.14227,0.19435 -0.41132,0.48902 -0.59791,0.65483 -0.2749,0.24424 -0.35603,0.27932 -0.42749,0.18478 -0.11272,-0.14912 0.27934,-1.30125 0.44038,-1.29395 0.059,0.003 0.13142,-0.0504 0.16091,-0.11789 0.078,-0.17858 0.51285,-0.1363 0.60621,0.0589 0.0597,0.12501 0.0199,0.23736 -0.1821,0.5134 z m -0.22631,-5.11491 c -0.21405,0.16185 -0.63872,-0.0202 -1.1621,-0.4982 -0.46559,-0.42523 -0.70967,-0.79797 -0.44758,-0.68353 0.0678,0.0296 0.11593,-0.004 0.11956,-0.0843 0.008,-0.18243 0.40346,-0.15717 0.67214,0.043 0.493,0.36718 0.95682,0.84597 0.95069,0.98134 -0.004,0.0805 -0.0635,0.18927 -0.13268,0.24171 z m -1.35048,2.55804 c -0.62238,0.19031 -1.03091,0.19369 -1.23761,0.01 l -0.18308,-0.16252 0.2117,-0.20126 c 0.16882,-0.1605 0.32402,-0.20693 0.76619,-0.22924 0.65982,-0.0333 0.8229,0.023 0.81122,0.28037 -0.007,0.15109 -0.0859,0.21606 -0.36842,0.30242 z"
         style="fill:#000000;fill-opacity:1;fill-rule:nonzero;stroke:none;stroke-width:0.196957;stroke-dasharray:none;filter:url(#filter98)"
         id="path81"
         inkscape:export-filename="favicon.svg"
         inkscape:export-xdpi="96"
         inkscape:export-ydpi="96"
         sodipodi:nodetypes="cssccsscscscssscssccsssssscsssccsssccsscccssccscsscssccsccssccsssssscsscss" /></g><g
       id="g103"
       clip-path="url(#clipPath106)"
       inkscape:export-filename="favicon.png"
       inkscape:export-xdpi="117.22209"
       inkscape:export-ydpi="117.22209"
       transform="translate(-12.193276,2.9109536)"><circle
         style="fill:#f2e2c4;fill-opacity:1;fill-rule:nonzero;stroke:none;stroke-width:1.07836;stroke-linecap:round;stroke-linejoin:round;stroke-dasharray:none;filter:url(#filter106)"
         id="circle100"
         cx="140.40756"
         cy="164.05891"
         r="9.179821" /><ellipse
         style="fill:#f288eb;fill-opacity:1;fill-rule:nonzero;stroke:none;stroke-width:0.899999;stroke-linecap:round;stroke-linejoin:round;stroke-dasharray:none;filter:url(#filter103)"
         id="ellipse100"
         cx="140.98228"
         cy="163.89798"
         rx="4.231041"
         ry="4.0719795" /><circle
         style="fill:#f299da;fill-opacity:1;fill-rule:nonzero;stroke:none;stroke-width:0.899999;stroke-linecap:round;stroke-linejoin:round;stroke-dasharray:none;filter:url(#filter104)"
         id="circle101"
         cx="138.59882"
         cy="161.43332"
         r="3.2130463" /><circle
         style="fill:#f2ca52;fill-opacity:1;fill-rule:nonzero;stroke:none;stroke-width:0.899999;stroke-linecap:round;stroke-linejoin:round;stroke-dasharray:none;filter:url(#filter105)"
         id="circle102"
         cx="139.3853"
         cy="166.14984"
         r="5.2130427" /><path
         d="m 144.93231,164 c -0.0946,0.21933 -0.39978,0.33539 -0.83033,0.31588 -0.40129,-0.0183 -0.51494,-0.13701 -0.37905,-0.39644 0.11914,-0.22734 0.67587,-0.32638 1.05836,-0.18825 0.19787,0.0714 0.21955,0.11008 0.15102,0.26881 z m -0.68733,-3.07531 c -0.5983,0.64508 -0.79218,0.79799 -0.9998,0.78857 -0.26432,-0.0126 -0.43305,-0.21948 -0.29617,-0.36421 0.054,-0.0571 0.21761,-0.25531 0.36357,-0.4405 0.30298,-0.38434 0.98842,-0.82869 1.16162,-0.75305 0.20376,0.089 0.11008,0.40341 -0.22922,0.76919 z m -0.43236,6.51073 c -0.21065,0.25321 -0.44131,0.14616 -0.96236,-0.44666 -0.27647,-0.31453 -0.51002,-0.59742 -0.51899,-0.62864 -0.008,-0.0313 0.06,-0.14719 0.15331,-0.25773 l 0.16962,-0.20097 0.2682,0.16538 c 0.24238,0.14944 0.94241,0.96518 0.98855,1.15195 0.01,0.0417 -0.0339,0.13923 -0.0984,0.21667 z m -1.57029,-3.12575 c -0.1417,0.48122 -0.25708,0.68043 -0.62995,1.08768 -0.25107,0.2742 -0.56005,0.65824 -0.68662,0.85337 -0.12653,0.19515 -0.24653,0.35407 -0.26655,0.35317 -0.242,-0.0112 -0.72015,-0.43018 -1.46479,-1.28425 -0.91148,-1.04542 -0.98427,-1.1604 -1.06094,-1.67566 -0.0234,-0.15754 -0.0568,-0.38097 -0.0742,-0.49652 -0.042,-0.27987 0.33295,-0.60616 0.90281,-0.78564 0.54334,-0.17114 0.79652,-0.10994 1.09683,0.26506 0.27601,0.34465 0.43831,0.33999 0.8982,-0.0258 0.15564,-0.12375 0.38639,-0.24287 0.51278,-0.26459 0.1264,-0.0218 0.28006,-0.0527 0.34148,-0.0689 0.13617,-0.0358 0.43127,0.13086 0.56119,0.317 0.13617,0.195 0.0725,1.03609 -0.1303,1.72509 z m -1.27733,3.95778 c -0.1038,0.42429 -0.1586,0.51319 -0.31205,0.50622 -0.1652,-0.008 -0.25489,-0.23413 -0.34152,-0.86293 -0.0684,-0.49644 -0.0604,-0.56121 0.0882,-0.71971 0.22744,-0.24249 0.52841,-0.21303 0.61847,0.0605 0.0826,0.25053 0.0685,0.51908 -0.053,1.0159 z m -0.0413,-7.29224 c -0.19281,0.23219 -0.54285,0.0353 -0.52779,-0.29698 0.006,-0.13268 -0.007,-0.35897 -0.0292,-0.50282 -0.034,-0.22251 -0.01,-0.27111 0.16084,-0.32569 0.12292,-0.0393 0.27218,-0.0276 0.38445,0.0297 0.15593,0.0798 0.18025,0.15763 0.16168,0.51769 -0.0126,0.23757 -0.0781,0.49158 -0.15001,0.57808 z m -2.79229,5.52459 c -0.14227,0.19435 -0.41132,0.48902 -0.59791,0.65483 -0.2749,0.24424 -0.35603,0.27932 -0.42749,0.18478 -0.11272,-0.14912 0.27934,-1.30125 0.44038,-1.29395 0.059,0.003 0.13142,-0.0504 0.16091,-0.11789 0.078,-0.17858 0.51285,-0.1363 0.60621,0.0589 0.0597,0.12501 0.0199,0.23736 -0.1821,0.5134 z m -0.22631,-5.11491 c -0.21405,0.16185 -0.63872,-0.0202 -1.1621,-0.4982 -0.46559,-0.42523 -0.70967,-0.79797 -0.44758,-0.68353 0.0678,0.0296 0.11593,-0.004 0.11956,-0.0843 0.008,-0.18243 0.40346,-0.15717 0.67214,0.043 0.493,0.36718 0.95682,0.84597 0.95069,0.98134 -0.004,0.0805 -0.0635,0.18927 -0.13268,0.24171 z m -1.35048,2.55804 c -0.62238,0.19031 -1.03091,0.19369 -1.23761,0.01 l -0.18308,-0.16252 0.2117,-0.20126 c 0.16882,-0.1605 0.32402,-0.20693 0.76619,-0.22924 0.65982,-0.0333 0.8229,0.023 0.81122,0.28037 -0.007,0.15109 -0.0859,0.21606 -0.36842,0.30242 z"
         style="fill:#000000;fill-opacity:1;fill-rule:nonzero;stroke:none;stroke-width:0.196957;stroke-dasharray:none;filter:url(#filter98-7)"
         id="path81-3"
         inkscape:export-filename="favicon.svg"
         inkscape:export-xdpi="96"
         inkscape:export-ydpi="96"
         sodipodi:nodetypes="cssccsscscscssscssccsssssscsssccsssccsscccssccscsscssccsccssccsssssscsscss" /></g><g
       id="g2"
       transform="translate(6.7415195,-3.0974549)"
       inkscape:export-filename="simplefeed\src\assets\life_heart.svg"
       inkscape:export-xdpi="104.41514"
       inkscape:export-ydpi="104.41514"><path
         d="m 129.01944,143.77104 c -0.0325,0.0296 -0.27147,0.0446 -0.53123,0.0334 -0.25975,-0.0113 -0.61608,-0.003 -0.79182,0.0176 -0.29605,0.0353 -0.32051,0.0591 -0.33256,0.32482 -0.0106,0.23419 0.0289,0.30556 0.21543,0.38919 0.12564,0.0563 0.29298,0.13937 0.37187,0.18455 0.0789,0.0452 0.23399,0.0862 0.34465,0.0913 0.25254,0.0115 0.63316,0.33212 0.62437,0.52602 -0.0127,0.28069 -0.19965,0.34077 -0.95395,0.30657 -0.71714,-0.0325 -0.73669,-0.0281 -0.79894,0.17957 -0.0945,0.31523 -0.0191,0.37663 0.4905,0.39973 0.34902,0.0158 0.54273,0.0772 0.79281,0.25144 0.38423,0.26764 0.44899,0.40212 0.30784,0.63936 -0.0808,0.13595 -0.18367,0.16781 -0.49573,0.15366 -0.52404,-0.0238 -1.36919,0.0965 -1.66956,0.23762 -0.21409,0.10056 -0.26426,0.0978 -0.43216,-0.0234 -0.28128,-0.20308 -0.3049,-0.51637 -0.19625,-2.60183 l 0.0988,-1.89754 0.23722,-0.14068 c 0.20737,-0.12297 0.36483,-0.12845 1.25058,-0.0435 0.98467,0.0944 1.02078,0.10486 1.27644,0.36931 0.24976,0.25832 0.32156,0.48425 0.19163,0.60292 z m -3.51216,0.51983 c -0.0886,0.0731 -0.21701,0.13043 -0.28545,0.12733 -0.0684,-0.003 -0.16238,0.029 -0.20875,0.0713 -0.0464,0.0423 -0.38916,0.0745 -0.76177,0.0714 -0.61263,-0.005 -0.67822,0.0106 -0.68516,0.16357 -0.007,0.14748 0.0626,0.17778 0.54018,0.23638 0.67,0.0822 1.10753,0.38167 1.0518,0.71993 -0.0402,0.24382 -0.24898,0.31247 -0.899,0.29559 l -0.4363,-0.0114 -0.0226,0.43197 c -0.0142,0.26821 -0.0753,0.48485 -0.16117,0.57146 -0.0761,0.0767 -0.14092,0.19844 -0.14418,0.27049 -0.0161,0.356 -0.53493,0.33481 -0.77399,-0.0316 -0.0589,-0.0903 -0.17772,-0.19424 -0.26409,-0.23106 -0.14868,-0.0634 -0.15027,-0.13535 -0.0299,-1.35183 0.07,-0.70668 0.14396,-1.51065 0.16447,-1.78659 0.0341,-0.45832 0.0629,-0.52116 0.3328,-0.72651 0.26855,-0.2043 0.35583,-0.22206 0.95716,-0.1948 0.72653,0.0329 1.02911,0.17468 1.14876,0.53813 0.0371,0.11288 0.10216,0.18596 0.14445,0.1624 0.10105,-0.0563 0.50529,0.29465 0.49901,0.43315 -0.003,0.0592 -0.0774,0.16746 -0.1659,0.24059 z m -3.73153,2.08941 c -0.027,0.16193 -0.12517,0.35919 -0.21819,0.43837 -0.0931,0.0792 -0.17234,0.21452 -0.17625,0.30076 -0.004,0.0863 -0.0656,0.17625 -0.13694,0.2 -0.17678,0.0588 -0.51118,-0.0959 -0.56645,-0.262 -0.029,-0.087 -0.14912,-0.14038 -0.33536,-0.14883 -0.2776,-0.0126 -0.29327,-0.0308 -0.35954,-0.41888 -0.0381,-0.22314 -0.0603,-0.53879 -0.0494,-0.70145 0.0114,-0.16264 0.0181,-0.50856 0.0147,-0.76871 -0.007,-0.60443 0.18459,-0.82121 0.65667,-0.74429 0.17934,0.0292 0.31125,0.0139 0.31353,-0.0365 0.002,-0.0478 0.14475,-0.16538 0.31685,-0.26126 l 0.31292,-0.17432 0.18896,0.25373 c 0.17378,0.23333 0.18489,0.32504 0.13821,1.14133 -0.0281,0.48818 -0.0729,1.0201 -0.0998,1.18203 z m -2.44307,0.3941 c -0.0507,0.0463 -0.17512,0.0805 -0.27642,0.0759 -0.10129,-0.005 -0.22872,0.0406 -0.28317,0.1005 -0.15018,0.16512 -0.98355,0.29825 -1.35001,0.21566 -0.17635,-0.0398 -0.43419,-0.0913 -0.57299,-0.11449 -0.41549,-0.0695 -0.67,-0.21702 -0.90639,-0.52527 l -0.22391,-0.29198 0.10808,-1.22494 c 0.11404,-1.29233 0.22645,-2.12367 0.29628,-2.19107 0.023,-0.0223 0.16377,-0.0762 0.31267,-0.11977 0.175,-0.0513 0.29113,-0.1509 0.32834,-0.28176 0.0469,-0.16493 0.11072,-0.20004 0.34425,-0.18946 l 0.28667,0.013 -0.0416,0.54901 c -0.0227,0.30196 -0.0879,1.07133 -0.14458,1.70971 l -0.10296,1.16069 0.87728,0.0398 c 1.10702,0.0502 1.42858,0.20249 1.4359,0.6801 0.003,0.17058 -0.0367,0.34807 -0.0874,0.3944 z"
         style="fill:#000000"
         id="path2"
         sodipodi:nodetypes="cccssscssssccsssccsssccccsccsscccsssscssscsccccscccssccscscsccccccccscsccssccccsccc" /><path
         d="m 122.33469,142.1133 c -0.15948,0.52887 -0.733,1.22023 -1.18919,1.43356 -0.23639,0.11053 -0.46185,0.0896 -0.72571,-0.0674 -0.24945,-0.1484 -0.7795,-0.88079 -0.87892,-1.21439 -0.0794,-0.2666 -0.0702,-0.34237 0.0674,-0.55305 0.09,-0.13778 0.30407,-0.29398 0.49136,-0.35856 0.3122,-0.10764 0.35394,-0.10243 0.70457,0.088 0.32763,0.17795 0.38506,0.18754 0.47488,0.0793 0.0562,-0.0677 0.26087,-0.14046 0.45481,-0.16166 0.29044,-0.0318 0.38266,-0.006 0.523,0.14801 0.17629,0.19303 0.18406,0.25362 0.0778,0.60614 z"
         style="fill:#7fffd4;fill-opacity:1;stroke:none;stroke-width:0.3;stroke-dasharray:none"
         id="path1" /></g><g
       id="g4"
       clip-path="url(#clipPath12)"
       inkscape:export-filename="simplefeed\public\icon.svg"
       inkscape:export-xdpi="361.53683"
       inkscape:export-ydpi="361.53683"
       inkscape:transform-center-x="-0.028368686"
       inkscape:transform-center-y="-0.073138237"><ellipse
         style="fill:#f288eb;fill-opacity:1;fill-rule:nonzero;stroke:none;stroke-width:0.899999;stroke-linecap:round;stroke-linejoin:round;stroke-dasharray:none;filter:url(#filter103)"
         id="ellipse2"
         cx="139.539"
         cy="124.29485"
         rx="4.231041"
         ry="4.0719795" /><circle
         style="fill:#7fffd4;fill-opacity:1;fill-rule:nonzero;stroke:none;stroke-width:1.28903;stroke-linecap:round;stroke-linejoin:round;stroke-dasharray:none"
         id="circle2"
         cx="138.96428"
         cy="124.45578"
         r="10.97319" /><path
         d="m 143.48902,124.39687 c -0.0946,0.21933 -0.39978,0.33539 -0.83033,0.31588 -0.40129,-0.0183 -0.51494,-0.13701 -0.37905,-0.39644 0.11914,-0.22734 0.67587,-0.32638 1.05836,-0.18825 0.19787,0.0714 0.21955,0.11008 0.15102,0.26881 z m -0.68733,-3.07531 c -0.5983,0.64508 -0.79218,0.79799 -0.9998,0.78857 -0.26432,-0.0126 -0.43305,-0.21948 -0.29617,-0.36421 0.054,-0.0571 0.21761,-0.25531 0.36357,-0.4405 0.30298,-0.38434 0.98842,-0.82869 1.16162,-0.75305 0.20376,0.089 0.11008,0.40341 -0.22922,0.76919 z m -0.43236,6.51073 c -0.21065,0.25321 -0.44131,0.14616 -0.96236,-0.44666 -0.27647,-0.31453 -0.51002,-0.59742 -0.51899,-0.62864 -0.008,-0.0313 0.06,-0.14719 0.15331,-0.25773 l 0.16962,-0.20097 0.2682,0.16538 c 0.24238,0.14944 0.94241,0.96518 0.98855,1.15195 0.01,0.0417 -0.0339,0.13923 -0.0984,0.21667 z m -1.57029,-3.12575 c -0.1417,0.48122 -0.25708,0.68043 -0.62995,1.08768 -0.25107,0.2742 -0.56005,0.65824 -0.68662,0.85337 -0.12653,0.19515 -0.24653,0.35407 -0.26655,0.35317 -0.242,-0.0112 -0.72015,-0.43018 -1.46479,-1.28425 -0.91148,-1.04542 -0.98427,-1.1604 -1.06094,-1.67566 -0.0234,-0.15754 -0.0568,-0.38097 -0.0742,-0.49652 -0.042,-0.27987 0.33295,-0.60616 0.90281,-0.78564 0.54334,-0.17114 0.79652,-0.10994 1.09683,0.26506 0.27601,0.34465 0.43831,0.33999 0.8982,-0.0258 0.15564,-0.12375 0.38639,-0.24287 0.51278,-0.26459 0.1264,-0.0218 0.28006,-0.0527 0.34148,-0.0689 0.13617,-0.0358 0.43127,0.13086 0.56119,0.317 0.13617,0.195 0.0725,1.03609 -0.1303,1.72509 z m -1.27733,3.95778 c -0.1038,0.42429 -0.1586,0.51319 -0.31205,0.50622 -0.1652,-0.008 -0.25489,-0.23413 -0.34152,-0.86293 -0.0684,-0.49644 -0.0604,-0.56121 0.0882,-0.71971 0.22744,-0.24249 0.52841,-0.21303 0.61847,0.0605 0.0826,0.25053 0.0685,0.51908 -0.053,1.0159 z m -0.0413,-7.29224 c -0.19281,0.23219 -0.54285,0.0353 -0.52779,-0.29698 0.006,-0.13268 -0.007,-0.35897 -0.0292,-0.50282 -0.034,-0.22251 -0.01,-0.27111 0.16084,-0.32569 0.12292,-0.0393 0.27218,-0.0276 0.38445,0.0297 0.15593,0.0798 0.18025,0.15763 0.16168,0.51769 -0.0126,0.23757 -0.0781,0.49158 -0.15001,0.57808 z m -2.79229,5.52459 c -0.14227,0.19435 -0.41132,0.48902 -0.59791,0.65483 -0.2749,0.24424 -0.35603,0.27932 -0.42749,0.18478 -0.11272,-0.14912 0.27934,-1.30125 0.44038,-1.29395 0.059,0.003 0.13142,-0.0504 0.16091,-0.11789 0.078,-0.17858 0.51285,-0.1363 0.60621,0.0589 0.0597,0.12501 0.0199,0.23736 -0.1821,0.5134 z m -0.22631,-5.11491 c -0.21405,0.16185 -0.63872,-0.0202 -1.1621,-0.4982 -0.46559,-0.42523 -0.70967,-0.79797 -0.44758,-0.68353 0.0678,0.0296 0.11593,-0.004 0.11956,-0.0843 0.008,-0.18243 0.40346,-0.15717 0.67214,0.043 0.493,0.36718 0.95682,0.84597 0.95069,0.98134 -0.004,0.0805 -0.0635,0.18927 -0.13268,0.24171 z m -1.35048,2.55804 c -0.62238,0.19031 -1.03091,0.19369 -1.23761,0.01 l -0.18308,-0.16252 0.2117,-0.20126 c 0.16882,-0.1605 0.32402,-0.20693 0.76619,-0.22924 0.65982,-0.0333 0.8229,0.023 0.81122,0.28037 -0.007,0.15109 -0.0859,0.21606 -0.36842,0.30242 z"
         style="fill:#000000;fill-opacity:1;fill-rule:nonzero;stroke:none;stroke-width:0.196957;stroke-dasharray:none;filter:url(#filter98-7)"
         id="path4"
         inkscape:export-filename="favicon.svg"
         inkscape:export-xdpi="96"
         inkscape:export-ydpi="96"
         sodipodi:nodetypes="cssccsscscscssscssccsssssscsssccsssccsscccssccscsscssccsccssccsssssscsscss" /></g><g
       id="g5"
       clip-path="url(#clipPath5)"
       inkscape:export-filename="simplefeed\public\favicon.png"
       inkscape:export-xdpi="104.41514"
       inkscape:export-ydpi="104.41514"
       transform="translate(23.706034)"><ellipse
         style="fill:#f288eb;fill-opacity:1;fill-rule:nonzero;stroke:none;stroke-width:0.899999;stroke-linecap:round;stroke-linejoin:round;stroke-dasharray:none;filter:url(#filter103)"
         id="ellipse5"
         cx="139.539"
         cy="124.29485"
         rx="4.231041"
         ry="4.0719795" /><circle
         style="fill:#7fffd4;fill-opacity:1;fill-rule:nonzero;stroke:none;stroke-width:1.07836;stroke-linecap:round;stroke-linejoin:round;stroke-dasharray:none"
         id="circle5"
         cx="138.96428"
         cy="124.45578"
         r="9.179821" /><path
         d="m 140.79904,124.70654 c -0.1417,0.48122 -0.25708,0.68043 -0.62995,1.08768 -0.25107,0.2742 -0.56005,0.65824 -0.68662,0.85337 -0.12653,0.19515 -0.24653,0.35407 -0.26655,0.35317 -0.242,-0.0112 -0.72015,-0.43018 -1.46479,-1.28425 -0.91148,-1.04542 -0.98427,-1.1604 -1.06094,-1.67566 -0.0234,-0.15754 -0.0568,-0.38097 -0.0742,-0.49652 -0.042,-0.27987 0.33295,-0.60616 0.90281,-0.78564 0.54334,-0.17114 0.79652,-0.10994 1.09683,0.26506 0.27601,0.34465 0.43831,0.33999 0.8982,-0.0258 0.15564,-0.12375 0.38639,-0.24287 0.51278,-0.26459 0.1264,-0.0218 0.28006,-0.0527 0.34148,-0.0689 0.13617,-0.0358 0.43127,0.13086 0.56119,0.317 0.13617,0.195 0.0725,1.03609 -0.1303,1.72509 z"
         style="fill:#000000;fill-opacity:1;fill-rule:nonzero;stroke:none;stroke-width:0.196957;stroke-dasharray:none;filter:url(#filter98-7)"
         id="path5"
         inkscape:export-filename="favicon.svg"
         inkscape:export-xdpi="96"
         inkscape:export-ydpi="96"
         sodipodi:nodetypes="sssssscsssccsss"
         transform="matrix(1.6593395,0,0,1.6593395,-91.553992,-82.371395)" /></g></g></svg>
