<?xml version="1.0" encoding="UTF-8" standalone="no"?>
<!-- Created with Inkscape (http://www.inkscape.org/) -->

<svg
   width="5.4360337mm"
   height="5.3701787mm"
   viewBox="0 0 5.4360337 5.3701787"
   version="1.1"
   id="svg1"
   xml:space="preserve"
   xmlns="http://www.w3.org/2000/svg"
   xmlns:svg="http://www.w3.org/2000/svg"><defs
     id="defs1" /><g
     id="layer2"
     transform="translate(-61.216579,-64.312048)"><path
       d="m 63.619432,69.594888 c -0.0691,-0.05046 -0.172543,-0.117828 -0.229881,-0.149707 -0.229938,-0.127839 -0.311643,-0.374844 -0.29614,-0.895248 0.01675,-0.562429 0.07304,-0.515408 -0.673145,-0.562332 -0.578667,-0.03639 -0.775642,-0.09679 -1.007098,-0.308791 -0.167857,-0.153752 -0.179767,-0.180482 -0.102561,-0.2302 0.08126,-0.05233 0.08096,-0.06729 -0.0044,-0.214752 -0.121886,-0.210571 -0.119102,-0.414919 0.0062,-0.454686 0.05387,-0.0171 0.136968,-0.07421 0.184672,-0.126924 0.07858,-0.08683 0.15772,-0.09343 0.841696,-0.07022 l 0.754963,0.02563 -0.02487,-0.229903 c -0.01368,-0.126446 -0.04012,-0.312474 -0.05876,-0.413395 -0.01864,-0.100925 -0.03513,-0.207083 -0.03662,-0.235918 -0.0015,-0.02883 -0.02066,-0.06576 -0.04259,-0.08206 -0.02192,-0.0163 -0.04751,-0.203039 -0.05686,-0.414976 -0.01407,-0.318651 -3.65e-4,-0.401984 0.07917,-0.48152 0.0529,-0.0529 0.07259,-0.09618 0.04375,-0.09618 -0.02883,0 -0.05242,-0.03589 -0.05242,-0.07977 0,-0.102768 0.145976,-0.156912 0.617485,-0.229031 0.311085,-0.04758 0.414546,-0.04459 0.5601,0.01624 0.285842,0.119433 0.349114,0.308069 0.382004,1.138901 0.02741,0.69224 0.03395,0.726656 0.138938,0.730867 0.0606,0.0024 0.499439,0.01488 0.975202,0.02766 1.1073,0.02975 1.08454,0.01358 0.997397,0.70858 -0.03389,0.270247 -0.07753,0.621113 -0.09698,0.779702 l -0.03538,0.288344 -0.249337,0.04817 c -0.217998,0.04211 -0.264124,0.03466 -0.366984,-0.05928 -0.100458,-0.09175 -0.207632,-0.111177 -0.733655,-0.132991 -0.338805,-0.01405 -0.616009,-0.01611 -0.616009,-0.0046 0,0.01153 0.03846,0.108689 0.08547,0.215891 0.108703,0.247904 0.124923,1.151093 0.02406,1.339564 -0.05178,0.09676 -0.138677,0.141702 -0.359771,0.186105 -0.395631,0.07945 -0.500751,0.07407 -0.647638,-0.03321 z"
       style="display:inline;fill:#000000;stroke-width:0.619208"
       id="path1-1" /></g></svg>
