<?xml version="1.0" encoding="UTF-8" standalone="no"?>
<!-- Created with Inkscape (http://www.inkscape.org/) -->

<svg
   width="4.1595006mm"
   height="5.8070583mm"
   viewBox="0 0 4.1595006 5.8070583"
   version="1.1"
   id="svg1"
   xml:space="preserve"
   xmlns="http://www.w3.org/2000/svg"
   xmlns:svg="http://www.w3.org/2000/svg"><defs
     id="defs1" /><g
     id="layer1"
     style="display:inline"
     transform="translate(-80.451775,-80.926606)"><path
       d="m 80.99834,86.664181 c -0.127466,-0.06344 -0.181141,-0.149068 -0.196427,-0.313319 -0.0042,-0.0444 -0.03752,-0.226108 -0.07419,-0.40376 -0.05554,-0.269065 -0.06303,-0.488206 -0.04485,-1.312215 0.01246,-0.564497 0.0429,-1.072985 0.07092,-1.184341 0.04692,-0.186488 0.05431,-0.19409 0.166776,-0.171595 0.06472,0.01297 0.142026,0.02356 0.171779,0.02356 0.164465,0 0.210943,0.576343 0.123731,1.53428 -0.0506,0.555741 -0.05012,0.633654 0.0043,0.695743 0.04653,0.05312 0.05425,0.116159 0.03213,0.262446 -0.016,0.105887 -0.03215,0.237944 -0.03587,0.293463 l -0.0068,0.100941 0.403758,-0.0055 c 1.835521,-0.02494 2.032412,-0.03419 2.028553,-0.09546 -0.0021,-0.03333 0.0097,-0.130727 0.02617,-0.216484 0.02816,-0.146478 0.03716,-0.154485 0.148435,-0.132229 l 0.118452,0.0237 v -0.235479 c 0,-0.129587 0.0089,-0.32445 0.01962,-0.43303 0.01264,-0.127156 0.0084,-0.161572 -0.01186,-0.09669 -0.01731,0.0554 -0.06418,0.107022 -0.104146,0.114719 -0.06485,0.01249 -0.07072,-0.01135 -0.05465,-0.221854 0.02594,-0.339853 0.05522,-0.427032 0.176161,-0.524654 0.09376,-0.07568 0.104843,-0.108156 0.08568,-0.251096 -0.01211,-0.09029 -0.0066,-0.232865 0.01223,-0.316829 0.01884,-0.08397 0.04169,-0.22534 0.05079,-0.314169 0.01602,-0.156435 0.02083,-0.161109 0.153527,-0.149039 0.238071,0.02165 0.274853,0.04697 0.322942,0.222135 0.04967,0.180933 0.02275,1.491775 -0.03986,1.94102 -0.01822,0.13067 -0.01784,0.403106 8.11e-4,0.605413 0.01867,0.202311 0.02411,0.3988 0.01209,0.43665 -0.03391,0.106831 -0.157928,0.12387 -0.369294,0.05074 -0.369962,-0.128004 -1.007402,-0.0977 -1.816821,0.08636 -0.35484,0.08069 -1.201769,0.07251 -1.374108,-0.01326 z m 2.593681,-0.898632 c 0.01372,-0.02222 0.03297,-0.04039 0.04276,-0.04039 0.0098,0 0.01781,0.01817 0.01781,0.04039 0,0.02222 -0.01925,0.04039 -0.04276,0.04039 -0.02351,0 -0.03153,-0.01817 -0.01781,-0.04039 z m -0.499854,-0.308007 c -0.09188,-0.06435 -0.291575,-0.329881 -0.210338,-0.279675 0.03924,0.02422 0.04592,0.01135 0.02625,-0.05064 -0.04722,-0.148757 -0.03477,-1.598496 0.01387,-1.614705 0.02434,-0.0081 0.04425,-0.04049 0.04425,-0.07194 0,-0.07036 0.01919,-0.07035 0.222068,8.6e-5 0.13387,0.0465 0.169607,0.08264 0.208869,0.211367 0.06808,0.223185 0.0707,1.726849 0.0031,1.779739 -0.09219,0.07213 -0.225913,0.08332 -0.308068,0.02575 z m -1.026579,-0.08265 c -0.06231,-0.033 -0.128545,-0.100178 -0.147204,-0.149253 -0.01866,-0.04907 -0.0597,-0.110613 -0.0912,-0.13676 -0.04481,-0.0372 -0.05671,-0.173289 -0.05468,-0.625113 0.0026,-0.577296 0.0027,-0.577721 0.143915,-0.859261 l 0.141316,-0.281683 0.159829,0.0099 c 0.251184,0.0155 0.280996,0.07202 0.28773,0.545517 0.01085,0.762521 -0.03946,1.310346 -0.131677,1.433982 -0.09768,0.130951 -0.156609,0.14295 -0.308034,0.06271 z m -1.433115,-2.490161 c -0.181093,-0.06549 -0.216162,-0.1351 -0.149031,-0.295765 0.03297,-0.07891 0.04,-0.141949 0.01741,-0.15592 -0.02087,-0.0129 -0.03795,-0.04963 -0.03795,-0.08163 0,-0.06817 0.147357,-0.07691 0.302497,-0.01792 0.05823,0.02214 0.09626,0.0247 0.08451,0.0057 -0.01175,-0.01901 0.109459,-0.04672 0.269348,-0.06158 0.15989,-0.01486 0.306081,-0.04239 0.324868,-0.06117 0.02964,-0.02964 0.02059,-0.436448 -0.01986,-0.892208 -0.0118,-0.132989 -9.53e-4,-0.147064 0.184279,-0.238871 0.213238,-0.105693 0.559352,-0.12823 0.990705,-0.06451 0.200015,0.02955 0.216165,0.02618 0.190852,-0.03978 -0.02956,-0.07703 0.02791,-0.07487 0.600039,0.02253 0.455611,0.07757 0.467657,0.08263 0.535696,0.225311 0.06147,0.128906 0.06026,0.1527 -0.02087,0.408821 -0.04738,0.149573 -0.09764,0.336489 -0.111692,0.415369 l -0.02555,0.14342 0.263527,-0.01679 c 0.256105,-0.01631 0.266995,-0.01299 0.386566,0.117927 0.128826,0.141047 0.158076,0.281355 0.07257,0.348094 -0.02776,0.02165 -0.641071,0.06046 -1.362918,0.08622 -0.721846,0.02575 -1.494034,0.07338 -1.715972,0.105839 -0.221939,0.03248 -0.458031,0.06714 -0.524651,0.07707 -0.06662,0.0099 -0.181086,-0.0038 -0.254369,-0.03014 z m 2.535602,-0.70924 c 0.06636,-0.01903 0.09667,-0.05312 0.08847,-0.09954 -0.0069,-0.03883 0.01718,-0.159856 0.05341,-0.268946 0.03623,-0.109091 0.05553,-0.215098 0.04287,-0.235572 -0.01266,-0.02048 -0.118451,-0.05966 -0.235105,-0.08708 -0.116653,-0.02742 -0.26363,-0.07594 -0.326614,-0.107835 -0.09051,-0.04583 -0.153996,-0.04908 -0.302819,-0.01552 -0.103566,0.02335 -0.251894,0.05195 -0.329616,0.06354 l -0.141316,0.02108 -0.005,0.383432 -0.005,0.383431 0.529826,-0.004 c 0.291404,-0.0022 0.575249,-0.01704 0.630765,-0.03296 z"
       style="fill:#000000;stroke-width:0.47688"
       id="path1-2" /></g></svg>
