<?xml version="1.0" encoding="UTF-8" standalone="no"?>
<!-- Created with Inkscape (http://www.inkscape.org/) -->

<svg
   width="5.9283686mm"
   height="5.2801204mm"
   viewBox="0 0 5.9283686 5.2801204"
   version="1.1"
   id="svg1"
   xml:space="preserve"
   xmlns="http://www.w3.org/2000/svg"
   xmlns:svg="http://www.w3.org/2000/svg"><defs
     id="defs1" /><g
     id="layer1"
     style="display:inline"
     transform="translate(-86.480646,-81.208142)"><path
       d="m 86.679634,86.272487 c -0.133585,-0.158447 -0.179832,-0.250027 -0.159158,-0.315162 0.01602,-0.0505 0.0075,-0.132396 -0.01912,-0.181992 -0.05686,-0.106233 0.01044,-1.418289 0.116103,-2.263705 0.09593,-0.767556 0.08891,-1.133612 -0.0261,-1.359019 -0.117522,-0.230363 -0.117823,-0.281722 -0.0017,-0.281722 0.09458,0 0.174371,-0.107165 0.258904,-0.347757 0.02638,-0.07505 0.100771,-0.175587 0.165332,-0.223405 0.106662,-0.079 0.226899,-0.08732 1.316137,-0.09116 1.292018,-0.0046 1.525821,0.02543 1.720917,0.220516 0.141445,0.141444 0.127974,0.283311 -0.03867,0.407247 -0.197989,0.147253 -0.466219,0.171147 -1.591172,0.141742 -0.780622,-0.0204 -1.085529,-0.01284 -1.163423,0.02885 -0.05805,0.03108 -0.09267,0.07735 -0.07693,0.102823 0.176835,0.286126 0.210633,2.50782 0.05242,3.446485 -0.0085,0.05056 0.552607,0.08587 2.151871,0.135403 0.921654,0.02855 0.943536,0.02701 1.179341,-0.08305 0.343701,-0.160419 0.487521,-0.366989 0.487521,-0.700229 0,-0.227151 0.01991,-0.286603 0.142964,-0.426745 l 0.142964,-0.162829 -0.03209,-0.536805 -0.03209,-0.536806 0.227056,-0.03406 c 0.188352,-0.02825 0.237409,-0.01989 0.287788,0.049 0.07468,0.102138 0.04582,0.518527 -0.08923,1.287136 -0.151326,0.861247 -0.164831,0.988346 -0.126691,1.192376 0.04098,0.219188 -0.0416,0.398078 -0.203275,0.440352 -0.0526,0.01375 -0.189612,0.07498 -0.304475,0.136054 -0.121131,0.0644 -0.281091,0.108797 -0.380864,0.105697 -0.09461,-0.0028 -0.260143,0.0098 -0.367848,0.02833 -0.13454,0.02313 -0.265151,0.01003 -0.41732,-0.04182 -0.26054,-0.08877 -0.778075,-0.149441 -0.894319,-0.104836 -0.156373,0.06 -0.961606,0.05687 -1.137567,-0.0044 -0.204668,-0.07131 -0.665211,-0.0813 -0.665211,-0.01448 0,0.02651 0.133037,0.04697 0.305201,0.04697 0.589432,0 0.230791,0.121102 -0.460379,0.155458 -0.159997,0.0079 -0.19832,-0.01441 -0.366956,-0.214469 z m 1.360528,-1.121926 c -0.09626,-0.103041 -0.123422,-0.163054 -0.08927,-0.197206 0.02701,-0.02701 0.04909,-0.08706 0.04909,-0.133473 0,-0.04641 0.07115,-0.163677 0.158108,-0.260594 0.08696,-0.09692 0.173678,-0.229035 0.192705,-0.293596 0.01903,-0.06456 0.06697,-0.168579 0.106541,-0.231151 0.03957,-0.06257 0.07195,-0.194629 0.07195,-0.293462 0,-0.147794 0.0165,-0.179695 0.09298,-0.179695 0.07293,0 0.08832,-0.0244 0.07135,-0.11315 -0.01956,-0.102356 -0.0035,-0.114876 0.167995,-0.131235 0.168867,-0.01611 0.218181,0.0056 0.450479,0.199261 0.258945,0.215754 0.290748,0.261197 0.449474,0.642221 0.07547,0.18117 0.07621,0.207554 0.0087,0.310589 -0.04599,0.07019 -0.15348,0.132669 -0.285362,0.165878 -0.116369,0.02931 -0.223906,0.07322 -0.238967,0.09759 -0.01507,0.02437 -0.182842,0.130124 -0.372845,0.235008 -0.190003,0.104884 -0.371684,0.222296 -0.403736,0.260916 -0.0964,0.116153 -0.278847,0.08304 -0.429183,-0.0779 z m 2.166651,-1.16659 c 0,-0.02582 -0.04062,-0.04696 -0.09028,-0.04696 -0.05138,0 -0.185333,-0.111265 -0.310903,-0.258246 -0.121345,-0.142037 -0.24121,-0.258247 -0.266367,-0.258247 -0.09459,0 -0.318483,-0.197611 -0.318483,-0.281105 0,-0.09663 0.193211,-0.290735 0.523545,-0.525965 0.519979,-0.370276 1.297055,-0.981476 1.447545,-1.13855 0.143153,-0.149415 0.188179,-0.16923 0.363893,-0.160134 0.118009,0.0061 0.200525,0.03339 0.200525,0.0663 0,0.03076 0.03109,0.130358 0.06911,0.221336 0.06894,0.164972 0.06963,0.165284 0.261716,0.116526 0.16053,-0.04075 0.205494,-0.036 0.270025,0.02854 0.07193,0.07193 0.07089,0.08955 -0.01463,0.248351 -0.05063,0.09401 -0.187394,0.246963 -0.303924,0.339896 -0.361095,0.287973 -0.818132,0.766153 -1.027151,1.07467 -0.109948,0.162286 -0.298993,0.367772 -0.420097,0.456636 -0.216108,0.158573 -0.384531,0.209795 -0.384531,0.116945 z m -0.0274,-0.627157 c -0.03019,-0.07866 -0.113466,-0.107721 -0.113466,-0.03959 0,0.04568 0.104751,0.155058 0.127096,0.132713 0.0088,-0.0088 0.0026,-0.05069 -0.01363,-0.09312 z"
       style="fill:#000000;stroke-width:0.554573"
       id="path1-57" /></g></svg>
