<?xml version="1.0" encoding="UTF-8" standalone="no"?>
<!-- Created with Inkscape (http://www.inkscape.org/) -->

<svg
   width="4.4586506mm"
   height="5.4455013mm"
   viewBox="0 0 4.4586506 5.4455013"
   version="1.1"
   id="svg1"
   xml:space="preserve"
   xmlns="http://www.w3.org/2000/svg"
   xmlns:svg="http://www.w3.org/2000/svg"><defs
     id="defs1" /><g
     id="layer3"
     transform="translate(-79.020593,-64.236765)"><path
       d="m 80.827958,69.67109 c -0.254351,-0.01884 -0.337368,-0.05203 -0.465772,-0.186057 -0.08595,-0.08971 -0.187075,-0.163099 -0.22473,-0.163099 -0.101691,0 -0.306142,-0.283791 -0.270802,-0.375884 0.04251,-0.110793 -0.07106,-0.231373 -0.217928,-0.231373 -0.127949,0 -0.305425,-0.154904 -0.305425,-0.266577 0,-0.03554 0.0253,-0.06468 0.05627,-0.06468 0.03195,0 0.04173,-0.05777 0.02263,-0.133888 -0.03117,-0.12414 -0.01415,-0.137044 0.233571,-0.177261 0.333025,-0.05405 2.496662,-0.0536 3.055043,6.52e-4 0.80599,0.07834 0.781441,0.06872 0.762225,0.298467 -0.02243,0.268501 -0.174464,0.341359 -0.714379,0.342402 -0.369774,6.52e-4 -0.424825,0.01389 -0.449322,0.107553 -0.01865,0.07144 0.02595,0.15474 0.134919,0.251827 0.202345,0.180294 0.198087,0.408211 -0.0095,0.506349 -0.152569,0.07213 -1.122935,0.127387 -1.606841,0.09149 z m -0.998372,-2.269742 c -0.109319,-0.121005 -0.216989,-0.303541 -0.239263,-0.40563 -0.0223,-0.102095 -0.09939,-0.255844 -0.171367,-0.341671 -0.1393,-0.166118 -0.176746,-0.423045 -0.06188,-0.424453 0.04675,-5.74e-4 0.04277,-0.01741 -0.01219,-0.05223 -0.107187,-0.06778 -0.03404,-0.136992 0.09263,-0.08761 0.05445,0.02126 0.3971,0.04806 0.761456,0.0596 0.963462,0.03058 2.189445,0.153104 2.328569,0.23273 0.179954,0.102995 0.182067,0.2884 0.0059,0.518711 -0.08463,0.110643 -0.153866,0.224312 -0.153866,0.252603 0,0.0283 -0.05751,0.105453 -0.127766,0.171472 -0.103399,0.09713 -0.195551,0.120319 -0.483051,0.121532 -0.363534,0.0013 -1.194171,0.07665 -1.544697,0.139698 -0.177613,0.03195 -0.214127,0.01487 -0.394492,-0.184806 z m -0.185679,-1.94151 c -0.140643,-0.05699 -0.466222,-0.421409 -0.466222,-0.52188 0,-0.04075 -0.03853,-0.106099 -0.08561,-0.145168 -0.05536,-0.04597 -0.07974,-0.140931 -0.069,-0.268983 l 0.01663,-0.197944 0.303632,-0.0105 c 0.166991,-0.0059 0.576891,-0.03065 0.910888,-0.05523 0.840287,-0.06188 2.028184,0.0046 2.405939,0.134879 0.284899,0.09816 0.299954,0.112998 0.316575,0.31218 0.02028,0.243052 -0.104658,0.41912 -0.297431,0.41912 -0.07185,0 -0.170683,0.06292 -0.232828,0.14822 -0.09187,0.126122 -0.164586,0.154505 -0.487648,0.190387 -0.507444,0.05634 -2.172205,0.05268 -2.314889,-0.0052 z"
       style="display:inline;fill:#000000;stroke-width:0.652032"
       id="path1-5" /></g></svg>
