<?xml version="1.0" encoding="UTF-8" standalone="no"?>
<!-- Created with Inkscape (http://www.inkscape.org/) -->

<svg
   width="5.6529169mm"
   height="5.5961018mm"
   viewBox="0 0 5.6529169 5.5961018"
   version="1.1"
   id="svg1"
   xml:space="preserve"
   xmlns="http://www.w3.org/2000/svg"
   xmlns:svg="http://www.w3.org/2000/svg"><defs
     id="defs1" /><g
     id="layer4"
     transform="translate(-86.756093,-64.161462)"><path
       d="m 89.490035,69.644682 c -0.120841,-0.06871 -0.254388,-0.137289 -0.296768,-0.152389 -0.119132,-0.04244 -0.231267,-0.270233 -0.231065,-0.46937 1.04e-4,-0.09903 -0.01455,-0.203937 -0.03262,-0.233128 -0.05127,-0.08297 0.06807,-0.38508 0.184281,-0.466477 0.136053,-0.0953 0.525507,-0.09417 0.756116,0.0022 0.358488,0.149785 0.548981,0.418396 0.548981,0.77411 0,0.412222 -0.132925,0.577545 -0.513459,0.638602 -0.157459,0.02526 -0.238727,0.007 -0.415468,-0.09353 z m 2.086971,0.02564 c -0.102355,-0.04776 -0.211234,-0.111966 -0.241947,-0.142679 -0.03071,-0.03071 -0.09014,-0.05584 -0.132064,-0.05584 -0.126556,0 -0.204497,-0.188435 -0.232815,-0.562836 -0.03579,-0.473627 -0.0046,-0.57607 0.19596,-0.648692 0.190862,-0.06902 0.759013,-0.07891 0.924249,-0.01609 0.145215,0.05521 0.265495,0.39637 0.307182,0.871287 0.03718,0.42343 -0.0082,0.52943 -0.25623,0.598304 -0.243194,0.06754 -0.342899,0.05986 -0.564335,-0.04346 z m -4.72261,-0.180674 c -0.206946,-0.263084 -0.06943,-0.83754 0.247287,-1.03305 0.09055,-0.05589 0.269191,-0.12791 0.396994,-0.160039 0.307893,-0.0774 0.468885,-0.0093 0.718176,0.303793 0.329178,0.413427 0.305999,0.664964 -0.07806,0.847213 -0.164138,0.07789 -0.219172,0.08123 -0.473486,0.0287 -0.270795,-0.05594 -0.291924,-0.05349 -0.358366,0.04137 -0.102419,0.146223 -0.326407,0.132373 -0.452542,-0.02799 z m 2.493155,-1.623133 c -0.339644,-0.142484 -0.477769,-0.331995 -0.518383,-0.711251 -0.04128,-0.385658 -0.01414,-0.512465 0.152212,-0.710143 0.173023,-0.205622 0.448812,-0.206812 0.851226,-0.0037 0.358153,0.180794 0.423047,0.296841 0.466548,0.834328 0.02915,0.360474 0.02194,0.425762 -0.05784,0.522276 -0.130673,0.158076 -0.595309,0.193667 -0.893762,0.06846 z m 1.985153,-0.08255 c -0.07543,-0.06636 -0.176499,-0.120651 -0.2246,-0.120651 -0.154289,0 -0.237127,-0.15453 -0.248909,-0.464344 -0.0276,-0.725024 -0.02586,-0.746137 0.06858,-0.850501 0.06416,-0.07089 0.151929,-0.102625 0.283872,-0.102625 0.26878,0 0.805987,0.194681 0.97908,0.354813 0.142564,0.131891 0.145007,0.142118 0.110837,0.464343 -0.01923,0.181217 -0.06308,0.397275 -0.09748,0.480131 -0.148863,0.358574 -0.595983,0.481123 -0.871385,0.238834 z m -3.626487,-0.02738 c -0.08065,-0.01805 -0.247275,-0.03543 -0.370287,-0.03861 -0.35257,-0.0091 -0.436204,-0.131626 -0.436204,-0.638963 0,-0.445825 0.004,-0.45315 0.355439,-0.640297 0.283692,-0.151099 0.626749,-0.09109 0.820878,0.143596 0.261247,0.315831 0.392797,1.027541 0.204492,1.106335 -0.165403,0.06921 -0.429213,0.100418 -0.574318,0.06794 z m 1.768572,-1.784798 c -0.100878,-0.05468 -0.154821,-0.06041 -0.20179,-0.02143 -0.06547,0.05434 -0.284899,0.0018 -0.335205,-0.0803 -0.01339,-0.02182 -0.04029,-0.30889 -0.05988,-0.637932 l -0.03557,-0.598259 0.202247,-0.202246 c 0.198737,-0.198733 0.206697,-0.201683 0.458378,-0.169787 0.399072,0.05057 0.71515,0.170845 0.803553,0.305757 0.07023,0.107191 0.07299,0.186406 0.0239,0.687426 -0.06735,0.6874 -0.135325,0.796504 -0.49431,0.793363 -0.123011,-0.0011 -0.285608,-0.03554 -0.361333,-0.07659 z m 1.871014,-0.0661 c -0.09308,-0.07955 -0.226309,-0.145542 -0.29607,-0.146635 -0.24753,-0.0039 -0.306415,-0.143509 -0.301727,-0.715516 0.0064,-0.776923 0.111119,-0.926844 0.564965,-0.808532 0.113163,0.0295 0.342225,0.07877 0.509025,0.109477 0.420771,0.07747 0.453447,0.127033 0.488177,0.740314 0.03539,0.624633 0.0083,0.745742 -0.194008,0.869117 -0.245186,0.149499 -0.562263,0.129651 -0.770362,-0.04822 z m -3.692554,-0.07368 c -0.177716,-0.106535 -0.219415,-0.113572 -0.380349,-0.06418 -0.166991,0.05125 -0.187138,0.04645 -0.264739,-0.06311 -0.108747,-0.153527 -0.150653,-0.428073 -0.128386,-0.841117 0.01553,-0.288475 0.03539,-0.347158 0.153325,-0.453271 0.254671,-0.229171 0.383993,-0.273386 0.696284,-0.238054 0.500522,0.05662 0.7604,0.307968 0.64588,0.624665 -0.03192,0.08832 -0.05807,0.308938 -0.05807,0.490256 0,0.379898 -0.04485,0.488887 -0.243414,0.591569 -0.183339,0.09481 -0.18461,0.09467 -0.42053,-0.04676 z"
       style="fill:#000000;stroke-width:0.577302"
       id="path1" /></g></svg>
