<?xml version="1.0" encoding="UTF-8" standalone="no"?>
<!-- Created with Inkscape (http://www.inkscape.org/) -->

<svg
   width="13.36317mm"
   height="6.2947063mm"
   viewBox="0 0 13.36317 6.2947063"
   version="1.1"
   id="svg1"
   xml:space="preserve"
   inkscape:version="1.4.3 (0d15f75, 2025-12-25)"
   sodipodi:docname="IconsLogos.svg"
   inkscape:export-filename="simplefeed\public\IconsLogos.svg"
   inkscape:export-xdpi="104.41514"
   inkscape:export-ydpi="104.41514"
   xmlns:inkscape="http://www.inkscape.org/namespaces/inkscape"
   xmlns:sodipodi="http://sodipodi.sourceforge.net/DTD/sodipodi-0.dtd"
   xmlns="http://www.w3.org/2000/svg"
   xmlns:svg="http://www.w3.org/2000/svg"><sodipodi:namedview
     id="namedview1"
     pagecolor="#ffffff"
     bordercolor="#666666"
     borderopacity="1.0"
     inkscape:showpageshadow="2"
     inkscape:pageopacity="0.0"
     inkscape:pagecheckerboard="0"
     inkscape:deskcolor="#d1d1d1"
     inkscape:document-units="mm"
     inkscape:zoom="6.1608788"
     inkscape:cx="438.16801"
     inkscape:cy="584.41338"
     inkscape:window-width="2560"
     inkscape:window-height="1369"
     inkscape:window-x="628"
     inkscape:window-y="-8"
     inkscape:window-maximized="1"
     inkscape:current-layer="layer1"
     showgrid="false"><inkscape:page
       x="0"
       y="0"
       width="13.36317"
       height="6.2947063"
       id="page2"
       margin="0"
       bleed="0" /></sodipodi:namedview><defs
     id="defs1" /><g
     inkscape:label="Ebene 1"
     inkscape:groupmode="layer"
     id="layer1"
     transform="translate(-122.46131,-138.18545)"><g
       id="g2"
       transform="translate(6.7415195,-3.0974549)"><path
         d="m 129.01944,143.77104 c -0.0325,0.0296 -0.27147,0.0446 -0.53123,0.0334 -0.25975,-0.0113 -0.61608,-0.003 -0.79182,0.0176 -0.29605,0.0353 -0.32051,0.0591 -0.33256,0.32482 -0.0106,0.23419 0.0289,0.30556 0.21543,0.38919 0.12564,0.0563 0.29298,0.13937 0.37187,0.18455 0.0789,0.0452 0.23399,0.0862 0.34465,0.0913 0.25254,0.0115 0.63316,0.33212 0.62437,0.52602 -0.0127,0.28069 -0.19965,0.34077 -0.95395,0.30657 -0.71714,-0.0325 -0.73669,-0.0281 -0.79894,0.17957 -0.0945,0.31523 -0.0191,0.37663 0.4905,0.39973 0.34902,0.0158 0.54273,0.0772 0.79281,0.25144 0.38423,0.26764 0.44899,0.40212 0.30784,0.63936 -0.0808,0.13595 -0.18367,0.16781 -0.49573,0.15366 -0.52404,-0.0238 -1.36919,0.0965 -1.66956,0.23762 -0.21409,0.10056 -0.26426,0.0978 -0.43216,-0.0234 -0.28128,-0.20308 -0.3049,-0.51637 -0.19625,-2.60183 l 0.0988,-1.89754 0.23722,-0.14068 c 0.20737,-0.12297 0.36483,-0.12845 1.25058,-0.0435 0.98467,0.0944 1.02078,0.10486 1.27644,0.36931 0.24976,0.25832 0.32156,0.48425 0.19163,0.60292 z m -3.51216,0.51983 c -0.0886,0.0731 -0.21701,0.13043 -0.28545,0.12733 -0.0684,-0.003 -0.16238,0.029 -0.20875,0.0713 -0.0464,0.0423 -0.38916,0.0745 -0.76177,0.0714 -0.61263,-0.005 -0.67822,0.0106 -0.68516,0.16357 -0.007,0.14748 0.0626,0.17778 0.54018,0.23638 0.67,0.0822 1.10753,0.38167 1.0518,0.71993 -0.0402,0.24382 -0.24898,0.31247 -0.899,0.29559 l -0.4363,-0.0114 -0.0226,0.43197 c -0.0142,0.26821 -0.0753,0.48485 -0.16117,0.57146 -0.0761,0.0767 -0.14092,0.19844 -0.14418,0.27049 -0.0161,0.356 -0.53493,0.33481 -0.77399,-0.0316 -0.0589,-0.0903 -0.17772,-0.19424 -0.26409,-0.23106 -0.14868,-0.0634 -0.15027,-0.13535 -0.0299,-1.35183 0.07,-0.70668 0.14396,-1.51065 0.16447,-1.78659 0.0341,-0.45832 0.0629,-0.52116 0.3328,-0.72651 0.26855,-0.2043 0.35583,-0.22206 0.95716,-0.1948 0.72653,0.0329 1.02911,0.17468 1.14876,0.53813 0.0371,0.11288 0.10216,0.18596 0.14445,0.1624 0.10105,-0.0563 0.50529,0.29465 0.49901,0.43315 -0.003,0.0592 -0.0774,0.16746 -0.1659,0.24059 z m -3.73153,2.08941 c -0.027,0.16193 -0.12517,0.35919 -0.21819,0.43837 -0.0931,0.0792 -0.17234,0.21452 -0.17625,0.30076 -0.004,0.0863 -0.0656,0.17625 -0.13694,0.2 -0.17678,0.0588 -0.51118,-0.0959 -0.56645,-0.262 -0.029,-0.087 -0.14912,-0.14038 -0.33536,-0.14883 -0.2776,-0.0126 -0.29327,-0.0308 -0.35954,-0.41888 -0.0381,-0.22314 -0.0603,-0.53879 -0.0494,-0.70145 0.0114,-0.16264 0.0181,-0.50856 0.0147,-0.76871 -0.007,-0.60443 0.18459,-0.82121 0.65667,-0.74429 0.17934,0.0292 0.31125,0.0139 0.31353,-0.0365 0.002,-0.0478 0.14475,-0.16538 0.31685,-0.26126 l 0.31292,-0.17432 0.18896,0.25373 c 0.17378,0.23333 0.18489,0.32504 0.13821,1.14133 -0.0281,0.48818 -0.0729,1.0201 -0.0998,1.18203 z m -2.44307,0.3941 c -0.0507,0.0463 -0.17512,0.0805 -0.27642,0.0759 -0.10129,-0.005 -0.22872,0.0406 -0.28317,0.1005 -0.15018,0.16512 -0.98355,0.29825 -1.35001,0.21566 -0.17635,-0.0398 -0.43419,-0.0913 -0.57299,-0.11449 -0.41549,-0.0695 -0.67,-0.21702 -0.90639,-0.52527 l -0.22391,-0.29198 0.10808,-1.22494 c 0.11404,-1.29233 0.22645,-2.12367 0.29628,-2.19107 0.023,-0.0223 0.16377,-0.0762 0.31267,-0.11977 0.175,-0.0513 0.29113,-0.1509 0.32834,-0.28176 0.0469,-0.16493 0.11072,-0.20004 0.34425,-0.18946 l 0.28667,0.013 -0.0416,0.54901 c -0.0227,0.30196 -0.0879,1.07133 -0.14458,1.70971 l -0.10296,1.16069 0.87728,0.0398 c 1.10702,0.0502 1.42858,0.20249 1.4359,0.6801 0.003,0.17058 -0.0367,0.34807 -0.0874,0.3944 z"
         style="fill:#000000"
         id="path2"
         sodipodi:nodetypes="cccssscssssccsssccsssccccsccsscccsssscssscsccccscccssccscscsccccccccscsccssccccsccc" /><path
         d="m 122.33469,142.1133 c -0.15948,0.52887 -0.733,1.22023 -1.18919,1.43356 -0.23639,0.11053 -0.46185,0.0896 -0.72571,-0.0674 -0.24945,-0.1484 -0.7795,-0.88079 -0.87892,-1.21439 -0.0794,-0.2666 -0.0702,-0.34237 0.0674,-0.55305 0.09,-0.13778 0.30407,-0.29398 0.49136,-0.35856 0.3122,-0.10764 0.35394,-0.10243 0.70457,0.088 0.32763,0.17795 0.38506,0.18754 0.47488,0.0793 0.0562,-0.0677 0.26087,-0.14046 0.45481,-0.16166 0.29044,-0.0318 0.38266,-0.006 0.523,0.14801 0.17629,0.19303 0.18406,0.25362 0.0778,0.60614 z"
         style="fill:#7fffd4;fill-opacity:1;stroke:none;stroke-width:0.3;stroke-dasharray:none"
         id="path1" /></g></g></svg>
