<?xml version="1.0" encoding="UTF-8" standalone="no"?>
<!-- Created with Inkscape (http://www.inkscape.org/) -->

<svg
   width="27.320295mm"
   height="8.8684025mm"
   viewBox="0 0 27.320295 8.8684025"
   version="1.1"
   id="svg1"
   xml:space="preserve"
   xmlns="http://www.w3.org/2000/svg"
   xmlns:svg="http://www.w3.org/2000/svg"><defs
     id="defs1" /><g
     id="layer1"
     style="display:inline"
     transform="translate(-17.786105,-61.79266)"><path
       d="m 40.873856,70.56084 c -0.729717,-0.101812 -1.141157,-0.414765 -1.605875,-1.221463 l -0.373472,-0.648304 0.09998,-1.801091 c 0.210314,-3.788605 0.200443,-3.706053 0.469479,-3.926361 0.137096,-0.112263 0.322784,-0.175891 0.412657,-0.141406 0.08987,0.03449 0.336674,-0.0269 0.548448,-0.136415 0.529324,-0.273724 1.971498,-0.366562 2.771568,-0.178415 0.801354,0.188447 1.205202,0.388591 1.618938,0.802325 0.369827,0.369828 0.302226,0.592951 -0.263009,0.868085 -0.191596,0.09326 -0.455715,0.223287 -0.586931,0.288946 -0.13121,0.06566 -0.87035,0.107569 -1.642521,0.09312 l -1.403948,-0.02626 -0.08298,0.553352 c -0.04564,0.304343 -0.04725,0.589086 -0.0035,0.632759 0.04368,0.04368 0.52297,0.06424 1.065103,0.04571 0.868784,-0.02971 1.035539,-1.31e-4 1.405948,0.249373 1.024705,0.690227 0.17162,1.415517 -1.664929,1.415517 h -0.736566 v 0.403089 0.40309 l 1.19397,0.08224 c 0.656684,0.04523 1.453702,0.04778 1.771152,0.0057 0.50941,-0.06758 0.615943,-0.04064 0.907303,0.22938 0.336225,0.311604 0.44222,0.834322 0.199588,0.984278 -0.07179,0.04437 -0.102067,0.189518 -0.06728,0.322549 0.03479,0.133026 -0.02075,0.370082 -0.123424,0.526777 -0.181747,0.277381 -0.228299,0.284476 -1.763828,0.268856 -0.867435,-0.0088 -1.833064,-0.05175 -2.145841,-0.09539 z m -8.690347,-0.486538 c -0.139464,-0.05636 -0.355601,-0.22999 -0.480291,-0.385863 -0.124687,-0.155873 -0.402319,-0.407202 -0.616948,-0.558508 -0.347185,-0.244751 -0.390237,-0.338225 -0.390237,-0.847277 0,-0.314696 0.04052,-0.612491 0.09005,-0.661766 0.121552,-0.120929 0.343859,-1.953709 0.376401,-3.103149 0.02306,-0.814529 0.06407,-0.969074 0.326889,-1.231895 0.165288,-0.165288 0.473157,-0.383002 0.684154,-0.483809 0.210996,-0.100804 0.54399,-0.270979 0.739987,-0.378158 0.465106,-0.254341 1.219008,-0.252438 2.405315,0.0061 0.528319,0.115128 1.269635,0.249009 1.647368,0.297516 0.521284,0.06694 0.774469,0.172199 1.050636,0.436783 0.200118,0.191726 0.36385,0.415608 0.36385,0.49752 0,0.315742 -0.594522,0.602395 -1.57671,0.760219 -0.689905,0.110859 -1.105772,0.245487 -1.326838,0.429539 -0.184974,0.154002 -0.663213,0.335896 -1.123904,0.427467 -0.785931,0.156218 -1.053109,0.360748 -0.800819,0.613039 0.08608,0.08608 0.375437,0.09082 0.904273,0.01478 1.207199,-0.173583 1.666732,0.100975 1.800326,1.07566 0.06851,0.499853 0.0464,0.585069 -0.190184,0.733133 -0.14724,0.09215 -0.677359,0.202162 -1.178044,0.244479 -0.792789,0.06701 -0.94884,0.04666 -1.20853,-0.157621 l -0.298195,-0.23456 -0.136075,0.681659 c -0.07484,0.374913 -0.10669,0.824278 -0.0708,0.998591 0.07755,0.376515 -0.252834,0.947424 -0.541796,0.93622 -0.10798,-0.0043 -0.310429,-0.05372 -0.449897,-0.110065 z m -5.036468,-0.490461 c -0.341999,-0.357579 -0.352813,-0.404937 -0.336026,-1.471627 0.0095,-0.606188 0.06528,-2.003419 0.123864,-3.104959 0.09203,-1.730256 0.138585,-2.038239 0.342209,-2.263235 0.187241,-0.206898 0.328387,-0.248004 0.686606,-0.199956 0.248003,0.03326 0.481129,0.01163 0.518059,-0.04816 0.130784,-0.211615 0.966904,-0.119056 1.194296,0.132203 0.204574,0.226053 0.209305,0.364318 0.07702,2.251364 -0.07752,1.105786 -0.141024,2.307699 -0.141123,2.67092 -3.25e-4,1.185904 -0.405957,1.951181 -1.034219,1.951181 -0.186261,0 -0.393709,0.06884 -0.460993,0.152975 -0.267102,0.334001 -0.606277,0.309273 -0.969691,-0.0707 z m -7.377626,0.04306 c -0.09906,-0.03622 -0.30397,-0.178597 -0.455357,-0.31641 -0.206949,-0.188394 -0.326127,-0.220981 -0.480291,-0.131324 -0.306336,0.178149 -0.728293,0.06986 -0.930543,-0.238813 -0.159517,-0.243454 -0.157794,-0.371412 0.01566,-1.16197 0.213675,-0.973911 0.380963,-2.285833 0.480747,-3.770134 0.08074,-1.200939 0.208675,-1.467163 0.788585,-1.640908 0.251496,-0.07535 0.547559,-0.236774 0.657917,-0.358719 0.238737,-0.263801 0.851377,-0.291154 1.191133,-0.05318 0.221782,0.155342 0.238817,0.289315 0.217564,1.711037 -0.01262,0.848373 -0.06091,1.871637 -0.107186,2.273918 l -0.08413,0.731423 0.643738,-0.05286 c 1.140503,-0.09366 3.250487,0.811752 3.414487,1.465176 0.08152,0.32477 -0.389708,1.053361 -0.835603,1.291997 -0.143062,0.07657 -1.032656,0.146091 -2.091773,0.163483 -1.013566,0.01665 -1.874757,0.06217 -1.913758,0.101173 -0.08301,0.08301 -0.259228,0.07821 -0.511179,-0.0139 z"
       style="display:inline;fill:#000000;stroke-width:1.41818"
       id="path1-7" /></g></svg>
